<svg xmlns="http://www.w3.org/2000/svg" xmlns:xlink="http://www.w3.org/1999/xlink" viewBox="0,0,256,256" width="25px" height="25px"><g fill="#ffffff" fill-rule="nonzero" stroke="none" stroke-width="1" stroke-linecap="butt" stroke-linejoin="miter" stroke-miterlimit="10" stroke-dasharray="" stroke-dashoffset="0" font-family="none" font-weight="none" font-size="none" text-anchor="none" style="mix-blend-mode: normal"><g transform="scale(4,4)"><path d="M9,7v50h36c2.209,0 4,-1.791 4,-4v-42c0,-2.209 -1.791,-4 -4,-4zM51.95703,9.94336l-0.9375,43.99023l3,0.0625l0.9375,-43.98828zM29,20c2.761,0 5,2.239 5,5v1.28516c0,2.761 -2.143,5.71484 -5,5.71484c-2.857,0 -5,-2.95384 -5,-5.71484v-1.28516c0,-2.761 2.239,-5 5,-5zM29.00195,36c4.049,0 7.59712,0.95609 9.57813,1.62109c1.025,0.344 1.78323,1.20953 1.99023,2.26953l0.41406,2.10938h-23.96875l0.41406,-2.10937c0.208,-1.06 0.96623,-1.92553 1.99023,-2.26953c1.982,-0.666 5.53203,-1.62109 9.58203,-1.62109z"></path></g></g></svg>