<?xml version="1.0" encoding="UTF-8"?><svg id="Layer_2" xmlns="http://www.w3.org/2000/svg" xmlns:xlink="http://www.w3.org/1999/xlink" viewBox="0 0 663.55 172.7"><defs><style>.cls-1{fill:none;}.cls-2{fill:url(#linear-gradient);}.cls-3{clip-path:url(#clippath);}.cls-4{fill:#010101;}.cls-5,.cls-6{fill:#fff;}.cls-7{fill:#fcee23;}.cls-8{fill:#d63a2e;}.cls-9{clip-path:url(#clippath-1);}.cls-10{clip-path:url(#clippath-4);}.cls-11{clip-path:url(#clippath-3);}.cls-12{clip-path:url(#clippath-2);}.cls-13{clip-path:url(#clippath-7);}.cls-14{clip-path:url(#clippath-8);}.cls-15{clip-path:url(#clippath-6);}.cls-16{clip-path:url(#clippath-5);}.cls-17{clip-path:url(#clippath-9);}.cls-18{clip-path:url(#clippath-14);}.cls-19{clip-path:url(#clippath-13);}.cls-20{clip-path:url(#clippath-12);}.cls-21{clip-path:url(#clippath-10);}.cls-22{clip-path:url(#clippath-15);}.cls-23{clip-path:url(#clippath-11);}.cls-24{fill:url(#radial-gradient-3);}.cls-25{fill:url(#radial-gradient-2);}.cls-26{fill:url(#linear-gradient-8);}.cls-27{fill:url(#linear-gradient-9);}.cls-28{fill:url(#linear-gradient-3);}.cls-29{fill:url(#linear-gradient-4);}.cls-30{fill:url(#linear-gradient-2);}.cls-31{fill:url(#linear-gradient-6);}.cls-32{fill:url(#linear-gradient-7);}.cls-33{fill:url(#linear-gradient-5);}.cls-34{fill:url(#radial-gradient);}.cls-6,.cls-35{fill-rule:evenodd;}.cls-35{fill:#ec2227;}.cls-36{fill:url(#linear-gradient-13);}.cls-37{fill:url(#linear-gradient-12);}.cls-38{fill:url(#linear-gradient-10);}.cls-39{fill:url(#linear-gradient-11);}</style><clipPath id="clippath"><path class="cls-1" d="M400.38,42.68c-5.34,.39-10.68,.77-16.03,1.15l-.45,.03v.44c-.02,.35-.03,.72-.03,1.1,0,2.48,.22,5.46,.65,7.73l.05,.27,.27,.1c.92,.3,2,.25,2.53,.46-.75,3.86-1.87,7.47-2.28,11.74-.01,.01-.02,.03-.02,.04-.39-1.47-.84-2.82-1.3-4.16-1.99-5.9-4.04-11.55-6.07-17.29l-.13-.37-.39,.04c-4.05,.5-8.19,.94-11.75,1.93l-.35,.1-.02,.36c-.01,.37-.02,.75-.02,1.14,0,2.48,.25,5.42,.65,7.69l.07,.41h.42c.24,0,.47-.01,.7-.01,.71,0,1.36,.04,1.79,.21,3.14,8.83,7.02,16.8,10.97,24.66-.53,1.9-.85,3.71-2.3,4.31-.81,.11-1.56,.15-2.26,.15-1.97,0-3.66-.35-5.43-.67l-.52-.09-.06,.52c-.34,2.95-1.1,5.64-1.11,9.03,0,.31,0,.64,.03,.97l.02,.33,.32,.11c2.01,.7,4.24,1.22,6.79,1.22,1.07,0,2.18-.09,3.37-.3,1.75-.31,3.51-1.08,4.55-1.82,1.3-.93,3.31-2.56,5.13-5.33,1.07-1.63,1.78-3.62,2.52-5.45,.91-2.24,1.66-4.65,2.23-6.65,.15-.51,.32-1.06,.44-1.46,.15-.54,.32-1.03,.44-1.48,.2-.8,.48-1.5,.72-2.37,.59-2.08,.98-4.21,1.53-6.19,1.15-4.23,2.16-8.34,3.17-12.17,.66-.27,1.46-.48,2.21-.79l.32-.14v-.34c-.11-2.92-.07-6.11-.83-8.84l-.11-.39-.4,.03Z"/></clipPath><linearGradient id="linear-gradient" x1="-628.19" y1="649.35" x2="-626.19" y2="649.35" gradientTransform="translate(17824.21 -16776.03) rotate(-90) scale(26.86 -26.86)" gradientUnits="userSpaceOnUse"><stop offset="0" stop-color="#eeac21"/><stop offset=".36" stop-color="#f4c921"/><stop offset=".76" stop-color="#f9e322"/><stop offset="1" stop-color="#fcee23"/></linearGradient><clipPath id="clippath-1"><path class="cls-1" d="M185.25,36.08v.51c.06,1.48,.22,3.27,.41,4.73,.19,1.46,.48,3.17,.8,4.55l.09,.4,3.6,.23,.88,6.86-11.55,1.48-.89-6.86,3.43-1.13v-.42c-.05-1.41-.2-3.14-.39-4.6-.18-1.45-.48-3.23-.81-4.68l-.11-.5-21.07,2.71v.51c.06,1.48,.22,3.28,.41,4.73,.19,1.46,.48,3.17,.79,4.54l.1,.42,4.36,.13,3.27,25.48-4.18,1.22v.43c.05,1.41,.2,3.14,.39,4.6,.19,1.46,.49,3.23,.81,4.68l.11,.49,21.07-2.71-.02-.51c-.05-1.48-.21-3.28-.4-4.73-.19-1.46-.48-3.17-.8-4.55l-.09-.41-3.6-.23-.99-7.68,11.55-1.49,.99,7.68-3.42,1.13v.42c.04,1.41,.2,3.15,.38,4.6,.19,1.46,.49,3.24,.82,4.68l.11,.5,21.07-2.7-.02-.51c-.05-1.48-.21-3.28-.4-4.74-.18-1.45-.48-3.17-.79-4.55l-.1-.42-4.35-.13-3.27-25.48,4.18-1.23v-.43c-.05-1.41-.2-3.14-.39-4.59-.19-1.46-.49-3.24-.82-4.68l-.11-.5-21.06,2.71Z"/></clipPath><linearGradient id="linear-gradient-2" x1="-628.02" y1="653.25" x2="-626.02" y2="653.25" gradientTransform="translate(17578.1 -16633.86) rotate(-90) scale(26.62 -26.62)" xlink:href="#linear-gradient"/><clipPath id="clippath-2"><path class="cls-1" d="M212.01,49.58l-.43,.05-.06,.43c-.19,1.39-.32,2.84-.37,4.3-.02,.58-.03,1.18-.03,1.78,0,.9,.02,1.8,.07,2.68l.03,.45,3.37,.54-.57,15.14c-.01,.29-.02,.58-.02,.86-.07,7.43,4.03,11.12,9.94,11.27,.21,0,.43,.01,.64,.01,3.47,0,6.13-1.14,8.78-3.21l-.23,2.86,16.66,.63,.07-.5c.19-1.45,.32-2.98,.37-4.43,.02-.57,.03-1.14,.03-1.7,0-.89-.03-1.77-.08-2.62l-.03-.43-4.04-.83,.61-16.26,.75-10.29-16.59-.62-.07,.5c-.19,1.45-.32,2.98-.37,4.43-.02,.56-.03,1.13-.03,1.69,0,.89,.03,1.77,.08,2.62l.03,.42,3.77,.82-.57,15.1c-1.3,.58-2.98,.86-4.11,.86-.09,0-.17,0-.24,0-1.25-.04-1.97-.27-2.32-.58-.34-.31-.53-.81-.53-1.78,0-.11,0-.22,0-.33l.51-13.58,.76-10.63-.58-.02c-1.64-.06-3.4-.1-5.19-.1-3.53,0-7.14,.14-10.02,.49"/></clipPath><linearGradient id="linear-gradient-3" x1="-628.7" y1="661.97" x2="-626.7" y2="661.97" gradientTransform="translate(12895.47 -11940.99) rotate(-90) scale(19.13 -19.13)" xlink:href="#linear-gradient"/><clipPath id="clippath-3"><path class="cls-1" d="M278.98,45.96c-.3,0-.61,.01-.91,.03-3.27,.18-6.14,1.2-9.21,4.64l-.04-3.72-.59,.03c-4.85,.31-11.16,.97-15.39,1.92l-.42,.1-.02,.43c-.02,.51-.03,1.01-.03,1.53,0,.91,.03,1.83,.09,2.75,.09,1.44,.26,2.95,.48,4.39l.07,.46,4.19,.15,.97,15.67-3.99,.93-.02,.42c-.02,.5-.03,1.01-.03,1.53,0,.91,.03,1.83,.09,2.76,.09,1.45,.26,2.95,.48,4.39l.08,.5,18.96-1.18,.02-.51c.01-.47,.02-.95,.02-1.43,0-1-.04-2.01-.09-2.99-.09-1.44-.25-2.88-.47-4.25l-.06-.39-2.65-.51-.93-14.99c1.3-.75,2.9-1.19,4.21-1.27,.21-.01,.4-.02,.59-.02,1.08,0,1.62,.22,1.92,.54,.31,.32,.5,.91,.56,1.87l.84,13.43-2.57,.83-.02,.39c-.02,.5-.03,1-.03,1.5,0,.92,.03,1.85,.09,2.78,.09,1.45,.25,2.95,.48,4.39l.08,.5,18.83-1.17,.02-.51c.02-.47,.02-.95,.02-1.43,0-1-.03-2.01-.09-2.98-.08-1.32-.25-2.89-.47-4.26l-.07-.42-3.94-.43-.96-15.36c-.42-7.65-4.63-11.03-9.95-11.03-.04,0-.09,0-.13,0"/></clipPath><linearGradient id="linear-gradient-4" x1="-628.6" y1="660.32" x2="-626.6" y2="660.32" gradientTransform="translate(13115.25 -12140.11) rotate(-90) scale(19.45 -19.45)" xlink:href="#linear-gradient"/><clipPath id="clippath-4"><path class="cls-1" d="M308.31,84.03c-.42-.31-.65-.86-.7-2.03,0-.02,0-.04,0-.08,0-.23,.04-.6,.09-.91l9.45-.43-.03-.56,.03,.56c.08,0,.16,0,.24,0,.4,0,.55,.07,.59,.12,.06,.04,.17,.27,.2,.83,0,.08,0,.16,0,.22-.03,1.05-.3,1.53-1.08,1.98-.79,.44-2.21,.69-4.29,.78-.62,.03-1.17,.04-1.66,.04h-.09c-1.47,0-2.34-.18-2.76-.51m.28-25.25c-.42-.52-.71-1.5-.77-3.06-.01-.2-.02-.4-.02-.58,0-1.41,.27-2.18,.68-2.61,.4-.42,1.05-.64,2.1-.69l-.03-.56,.03,.56c.13,0,.25-.01,.37-.01,.98,0,1.58,.19,1.99,.66,.42,.46,.74,1.37,.81,2.96,0,.21,.01,.41,.01,.59,0,1.41-.27,2.25-.69,2.72-.42,.47-1.08,.72-2.14,.77-.11,0-.21,0-.31,0-1.04,0-1.62-.24-2.03-.76m6.92-15.49c-1.41-.26-3.12-.42-4.88-.42-.42,0-.85,.01-1.27,.03-8.56,.34-13.27,5.51-13.22,12.89,0,.28,0,.57,.02,.86,.17,3.95,1.59,6.65,3.81,8.51-1.58,3.29-2.85,6.17-3.04,8.36v.13s.04,.12,.04,.12c.57,1.43,1.69,3.36,2.55,4.67-2.19,1.81-2.98,3.84-2.97,5.93,0,.14,0,.28,.01,.42,.21,5.69,4.41,9.49,14.02,9.49,.09,0,.18,0,.28,0,.66,0,1.34-.01,2.06-.04,11.19-.46,16.67-5.78,16.63-13.35,0-.25,0-.51-.02-.76-.27-7.79-4.73-10.24-10.89-10.14-.47,0-.95,.01-1.45,.04l-8.47,.39c-.07,0-.13,0-.19,0-.38,0-.5-.07-.51-.09-.02-.01-.1-.14-.12-.52,0-.04,0-.06,0-.11,0-.44,.13-.87,.36-1.46,.89,.17,1.97,.27,3.09,.27,.3,0,.61,0,.92-.02,7.6-.28,12.85-4.08,12.8-11.7,0-.27,0-.54-.02-.82-.07-1.46-.44-2.88-.94-3.9l3.2-.47,.06-.41c.24-1.52,.33-3.24,.33-4.98,0-.97-.03-1.95-.07-2.89l-.03-.56-12.12,.55Z"/></clipPath><linearGradient id="linear-gradient-5" x1="-628.23" y1="651.62" x2="-626.23" y2="651.62" gradientTransform="translate(17107.07 -16097) rotate(-90) scale(25.77 -25.77)" xlink:href="#linear-gradient"/><clipPath id="clippath-5"><path class="cls-1" d="M334.9,47.72l-.43,.04-.07,.42c-.22,1.34-.37,2.76-.45,4.17-.06,.89-.08,1.8-.08,2.71,0,.55,.01,1.09,.03,1.62l.02,.46,4.06,.64-.9,15.33-3.99,.43-.07,.42c-.21,1.34-.37,2.75-.45,4.17-.05,.88-.08,1.8-.08,2.71,0,.54,.01,1.08,.03,1.61l.02,.51,20.18,1.19,.08-.5c.22-1.41,.37-2.88,.46-4.3,.05-.86,.08-1.73,.08-2.58,0-.55-.01-1.09-.03-1.62l-.02-.43-4.11-.91,.78-13.24c1.18-.33,2.43-.51,3.84-.51,.33,0,.68,.01,1.03,.03,1.35,.08,2.75,.36,4.03,.76l.6,.19,.12-.62c.68-3.53,1.36-8.23,1.55-11.47l.03-.4-.38-.15c-.88-.35-2.02-.55-2.95-.6-.17-.01-.34-.02-.51-.02-2-.02-4.44,.8-7.08,4.15l.43-4.22-.58-.03c-2.47-.14-5.34-.24-8.11-.24-2.56,0-5.05,.08-7.07,.29"/></clipPath><linearGradient id="linear-gradient-6" x1="-628.71" y1="660.24" x2="-626.71" y2="660.24" gradientTransform="translate(12467.97 -11458.33) rotate(-90) scale(18.36 -18.36)" xlink:href="#linear-gradient"/><clipPath id="clippath-6"><path class="cls-1" d="M439.94,43.28l-.02,.5c-.03,.78-.03,1.64,0,2.5,.02,.76,.05,1.52,.09,2.2,.09,1.45,.26,3.15,.49,4.54l.07,.41,3.53,.46,.42,6.81-11.47,.7-.42-6.81,3.45-.89v-.42c.04-.78,.04-1.65,.03-2.52-.02-.7-.04-1.4-.08-2.04-.09-1.45-.27-3.22-.49-4.67l-.08-.5-20.97,1.28-.02,.51c-.03,.79-.03,1.68,0,2.56,.02,.74,.05,1.48,.09,2.14,.09,1.45,.26,3.15,.49,4.53l.07,.42,4.29,.41,1.54,25.33-4.2,.93-.02,.43c-.03,.77-.03,1.64-.01,2.5,.01,.7,.05,1.41,.09,2.06,.09,1.45,.27,3.22,.49,4.67l.08,.5,20.97-1.28,.02-.51c.02-.78,.02-1.66,0-2.53-.01-.75-.04-1.48-.09-2.16-.09-1.45-.26-3.16-.48-4.53l-.07-.41-3.53-.46-.46-7.63,11.48-.7,.46,7.63-3.45,.89-.02,.42c-.03,.77-.03,1.63-.02,2.5,.01,.71,.05,1.41,.08,2.06,.09,1.45,.27,3.22,.5,4.67l.08,.5,20.96-1.28,.02-.51c.03-.78,.03-1.65,.01-2.51-.02-.76-.05-1.51-.08-2.18-.09-1.45-.26-3.16-.49-4.54l-.07-.42-4.28-.42-1.55-25.33,4.19-.93,.02-.43c.03-.76,.03-1.62,.02-2.48-.02-.71-.04-1.43-.08-2.08-.09-1.45-.27-3.22-.5-4.67l-.08-.51-20.96,1.28Z"/></clipPath><linearGradient id="linear-gradient-7" x1="-628.24" y1="649.89" x2="-626.24" y2="649.89" gradientTransform="translate(16636.03 -15565.46) rotate(-90) scale(24.92 -24.92)" xlink:href="#linear-gradient"/><clipPath id="clippath-7"><path class="cls-1" d="M479.61,79.61c-2.22-.52-3.11-1.15-3.24-4.04-.03-1.21,.15-2.82,.56-4.88,.58-2.93,1.27-4.8,2.04-5.89,.78-1.08,1.54-1.42,2.59-1.45,.4,0,.84,.04,1.32,.14,2.22,.52,3.11,1.15,3.25,4.04,.03,1.22-.15,2.82-.56,4.88-.58,2.92-1.28,4.8-2.04,5.89-.78,1.08-1.54,1.42-2.59,1.45-.03,0-.06,0-.1,0-.37,0-.78-.05-1.22-.13m1.06-26.7c-7.94,.15-14.31,5.65-16.2,15.3-.44,2.18-.62,4.19-.58,6.05,.16,8.84,5.66,13.97,13.71,15.53,1.43,.28,2.85,.41,4.23,.38,.02,0,.04,0,.05,0,7.67-.16,14.2-5.33,16.15-15.3,.44-2.21,.63-4.24,.59-6.09-.16-9.06-5.91-13.97-13.71-15.48-1.31-.26-2.6-.39-3.85-.39-.13,0-.25,0-.38,0"/></clipPath><linearGradient id="linear-gradient-8" x1="-628.84" y1="656.16" x2="-626.84" y2="656.16" gradientTransform="translate(12706.54 -11626.21) rotate(-90) scale(18.63 -18.63)" xlink:href="#linear-gradient"/><clipPath id="clippath-8"><path class="cls-1" d="M536.55,49.72l-.02,.51c-.04,1-.05,2.03-.03,3.05,.01,.44,.03,.88,.05,1.32,.07,1.43,.22,2.86,.42,4.21l.06,.38,2.32,.52-1.07,7.23c-.11,.63-.21,1.4-.29,2.24-.18-.83-.37-1.6-.58-2.23l-5.22-17.01-11.3,.57-3.46,17.46c-.16,.69-.3,1.53-.43,2.45-.13-.89-.29-1.7-.43-2.36l-3.59-17.34-.48,.03c-3.46,.17-7.9,.67-12.06,1.43l-.44,.08-.02,.44c-.03,.64-.03,1.29-.02,1.93,.02,.82,.06,1.65,.1,2.44,.07,1.41,.14,2.84,.36,4.21l.06,.43,2.74,.27c1.9,8.35,4.26,16.62,7.22,24.99l.13,.39,11.55-.59,4.11-19.37c.16-.68,.32-1.56,.44-2.45,.18,.88,.4,1.73,.64,2.41l6.19,18.84,11.48-.58,.1-.41c2.18-9.3,3.82-17.92,4.95-25.99l2.49-.81,.02-.39c.05-.95,.06-1.93,.04-2.92-.01-.44-.03-.88-.05-1.32-.07-1.43-.22-2.93-.43-4.35l-.08-.51-15.47,.79Z"/></clipPath><linearGradient id="linear-gradient-9" x1="-628.69" y1="654.13" x2="-626.69" y2="654.13" gradientTransform="translate(13096.54 -11994.13) rotate(-90) scale(19.22 -19.22)" xlink:href="#linear-gradient"/><clipPath id="clippath-9"><path class="cls-1" d="M589.41,68.61c-.03-4.31,1.17-5.46,2.98-5.62,.08,0,.15-.01,.22-.01,1.93,0,2.8,1.15,3.11,4.53,.02,.38,.05,.72,.05,1.06,0,.04,0,.08,0,.12l-6.35,.46c0-.18-.01-.36-.02-.54m3.63-14.5c-.42,0-.85,.03-1.29,.06-8.84,.59-15.51,6.9-15.22,18.54,.01,.53,.04,1.07,.08,1.62,.75,11.41,7.44,17.42,18.11,17.19,.05,0,.11,0,.16,0,.51-.01,1.03-.03,1.55-.07,3.24-.23,7.73-1.31,12.29-3.76l.37-.2-.09-.41c-.62-2.89-1.76-6.6-3.08-9.71l-.24-.58-.55,.31c-3.9,2.2-6.7,2.98-9.36,3.17-.43,.03-.84,.05-1.21,.06-1.65,.04-2.78-.17-3.46-.67-.64-.46-1.03-1.2-1.18-2.56l18.36-1.31v-.51c.03-.76,.04-1.61,.02-2.46-.03-1.38-.1-2.78-.17-3.78-.58-9.01-5.17-14.94-14.47-14.94-.2,0-.41,0-.62,.01"/></clipPath><linearGradient id="linear-gradient-10" x1="-628.87" y1="653.06" x2="-626.87" y2="653.06" gradientTransform="translate(12813.5 -11676.57) rotate(-90) scale(18.71 -18.71)" xlink:href="#linear-gradient"/><clipPath id="clippath-10"><path class="cls-1" d="M628.25,53.44c-7.58,.13-13.9,4.01-14.51,11.57-.04,.43-.05,.85-.04,1.26,.11,5.44,4.14,8.15,7.9,9.88,1.89,.87,3.76,1.53,5.11,2.18,1.39,.65,2.08,1.3,2.04,1.77,0,.03,0,.07,0,.1-.2,1.15-.22,1.24-1.62,1.38-.27,0-.59,0-.95-.04-.95-.08-1.86-.31-2.57-.58l-.47-2.93-.39-.07c-1.45-.26-3.43-.5-4.87-.61-1.45-.12-3.17-.2-4.57-.17h-.5s-.83,10.04-.83,10.04l.28,.19c3.42,2.26,7.8,3.53,12.84,3.94,.87,.07,1.73,.1,2.57,.08,.04,0,.08,0,.11,0,7.37-.16,13.26-4.04,13.86-11.55,.04-.48,.05-.94,.04-1.39-.12-5.68-4.11-8.66-7.88-10.49-1.9-.93-3.76-1.61-5.12-2.23-1.4-.6-2.09-1.25-2.01-1.5,0,0,0-.01,0-.03,.17-1.06,.28-1.31,1.58-1.42,.17,0,.37,0,.58,.02,.71,.06,1.29,.19,1.72,.32l.47,2.77,.39,.07c1.45,.26,3.42,.49,4.87,.61,1.45,.12,3.18,.2,4.57,.17h.51s.89-10.75,.89-10.75l-.4-.15c-3.18-1.17-7.13-2.05-10.93-2.37-.72-.06-1.43-.09-2.13-.09-.17,0-.34,0-.52,0"/></clipPath><linearGradient id="linear-gradient-11" x1="-628.83" y1="651.77" x2="-626.83" y2="651.77" gradientTransform="translate(13013.6 -11859.09) rotate(-90) scale(19 -19)" xlink:href="#linear-gradient"/><clipPath id="clippath-11"><path class="cls-1" d="M563.46,54.8c-2.37,.05-4.61,.17-6.45,.38l-.43,.05-.06,.42c-.2,1.36-.33,2.78-.39,4.21-.04,.95-.05,1.94-.03,2.92,.01,.48,.03,.97,.05,1.45l.03,.46,4.1,.57-.66,15.47-4.02,.49-.06,.43c-.19,1.35-.32,2.78-.38,4.21-.04,.98-.05,2-.03,3.01,0,.45,.03,.9,.05,1.35l.03,.51,20.16,.86,.07-.5c.2-1.43,.33-2.91,.39-4.35,.04-.94,.05-1.87,.03-2.8-.01-.48-.03-.96-.05-1.44l-.03-.42-3.95-.83,.67-15.91,.79-10.42-.58-.02c-1.96-.08-4.18-.14-6.41-.14-.95,0-1.91,0-2.85,.03"/></clipPath><linearGradient id="linear-gradient-12" x1="-628.91" y1="654.21" x2="-626.91" y2="654.21" gradientTransform="translate(12609.83 -11487.03) rotate(-90) scale(18.41 -18.41)" xlink:href="#linear-gradient"/><clipPath id="clippath-12"><path class="cls-1" d="M239.43,110.83c-10.99,0-19.93,8.94-19.93,19.93s8.94,19.93,19.93,19.93h323.45c10.99,0,19.93-8.94,19.93-19.93s-8.94-19.93-19.93-19.93H239.43Z"/></clipPath><linearGradient id="linear-gradient-13" x1="-630.2" y1="656.33" x2="-628.2" y2="656.33" gradientTransform="translate(13481.04 -12408.34) rotate(-90) scale(19.93 -19.93)" gradientUnits="userSpaceOnUse"><stop offset="0" stop-color="#7c1315"/><stop offset=".25" stop-color="#981619"/><stop offset="1" stop-color="#ec2227"/></linearGradient><clipPath id="clippath-13"><path class="cls-1" d="M24.85,92.11c0,30.88,25.31,55.9,56.53,55.9s56.53-25.02,56.53-55.9-25.31-55.9-56.53-55.9S24.85,61.24,24.85,92.11"/></clipPath><radialGradient id="radial-gradient" cx="-652.11" cy="626.31" fx="-652.11" fy="626.31" r="2" gradientTransform="translate(18410.99 17696.36) scale(28.11 -28.11)" gradientUnits="userSpaceOnUse"><stop offset="0" stop-color="#fcee23"/><stop offset=".52" stop-color="#fcee23"/><stop offset=".78" stop-color="#fceb21"/><stop offset=".89" stop-color="#fce41a"/><stop offset=".97" stop-color="#fed80f"/><stop offset="1" stop-color="#ffd109"/></radialGradient><clipPath id="clippath-14"><path class="cls-1" d="M84.42,29.89s-12.36,6.79-12.6,7.45c-.25,.66-7.4,5.97-7.4,5.97l-4.97,6.66,4.94,.58-.62,4.64,1.59,15.26,2,8.61-.34,4.28-4.97-8.45s-7.03-3.99-7.51-4.1c-.48-.11-5.4,1.04-5.4,1.04l-6.06,5.35-1.87,6.18-.48,7.45,2.08,6.39,5.22,7.8,2.95,1.11,8.03,1.53,4.95,9.71,3.12,12.9,2.92,4.26,5.55,3.35,5.96-1.72,3.74-5.9,2.8-5.33,12.2-.64,8.47-4.82,8.15-16.91,5.8-7.84,6.44-9.17-1.14-10.9-5.5-2.89-2.46-6.98-4.45-1.9-5.56,1.05,2.54-4.35,.78-3.08,.74-4.96-2.37-6.05-2.21-3.07,.19-7.26-2.81-9.61h-.24s-2.09-7.95-2.09-7.95l2.32,7.95,14.46-.89-22.18-15-14.73,20.27Z"/></clipPath><radialGradient id="radial-gradient-2" cx="-653.05" cy="629.35" fx="-653.05" fy="629.35" r="2" gradientTransform="translate(17769.25 17117.93) scale(27.08 -27.08)" gradientUnits="userSpaceOnUse"><stop offset="0" stop-color="#ffdcac"/><stop offset=".33" stop-color="#ffdcac"/><stop offset=".48" stop-color="#fdd1a1"/><stop offset=".75" stop-color="#f8b683"/><stop offset=".84" stop-color="#f6ab78"/><stop offset="1" stop-color="#f6ab78"/></radialGradient><clipPath id="clippath-15"><path class="cls-1" d="M84.05,12.11l-19.95,7.77-10.65,7.18-17.47,13.7-6.09-7.08-3.25,5.06-4.2-2.56,1.45,10.87,3.72,7.01-1.7,18.43,2.72,20.02,7.87,15.08,8.19,6.07,18.63,3.56-4.31-9.62-6.09,.48-8.73-5.23-4.45-17.01,6.1-12.44,6.4-3.5,8.03,4.52,6.87,6.99-1.43-7.72-1.56-17.94-.99-4.94s-6.09,1.89-7.05,2.26c.88-.7,5.59-7.14,5.59-7.14l6.05-6.93,12.59-7.61,21.82-5.11,14.16-.06,6.14,1.57-3.44-7.36-6.41-5.17-10.65-4.08-17.9,.91Z"/></clipPath><radialGradient id="radial-gradient-3" cx="-654.97" cy="629.65" fx="-654.97" fy="629.65" r="2" gradientTransform="translate(16701.74 16048.01) scale(25.38 -25.38)" gradientUnits="userSpaceOnUse"><stop offset="0" stop-color="#fcee23"/><stop offset=".58" stop-color="#fcee23"/><stop offset=".72" stop-color="#fce920"/><stop offset=".87" stop-color="#fddd17"/><stop offset="1" stop-color="#ffcb0c"/></radialGradient></defs><g id="Layer_1-2"><g><g><path class="cls-5" d="M81.39,172.7c-21.73,0-42.15-8.37-57.52-23.56C8.48,133.92,0,113.66,0,92.11c0-15.99,4.69-31.41,13.56-44.58,.17-.25,.23-.57,.15-.86-1.4-5.54-1.78-10.56-1.12-14.9,.23-1.55,.89-3.74,2.68-5.38,1.62-1.48,3.69-2.29,5.85-2.29,.44,0,.88,.03,1.31,.1,.2,.03,.39,.05,.59,.05h0c1.01,0,2.05-.4,2.93-1.14,1.53-1.27,3.47-1.97,5.46-1.97,.95,0,1.88,.16,2.78,.46,.45,.16,.9,.35,1.33,.59,.85,.47,1.8,.72,2.73,.72s1.76-.23,2.51-.67c.28-.16,.56-.32,.84-.48,1.08-.59,2.05-1.26,2.86-1.85,2.56-1.84,5.2-3.64,7.83-5.35,5.91-3.83,12.41-7.17,19.3-9.94,7.68-3.08,15.2-4.64,22.36-4.64,9.87,0,18.81,2.92,25.85,8.46,6.34,4.98,10.6,11.68,12.01,18.85,.23,1.15,.83,2.19,1.7,2.91,1.9,1.57,3.71,3.21,5.39,4.87,2,1.97,3.97,4.15,5.87,6.48,.28,.34,.68,.53,1.12,.53,.77,0,1.4-.6,1.44-1.37l.2-4.23c.21-4.2,3.4-7.59,7.58-8.07l4.44-.5c2.25-.25,4.62-.59,7.12-.95,2.97-.43,6.03-.86,9.17-1.2l3.77-.52c.15-.03,.28-.05,.4-.06l2-.27,1.79-.24c.11-.02,.23-.03,.34-.04l25.43-3.39c.38-.05,.76-.08,1.14-.08,4.1,0,7.63,2.93,8.4,6.96l.93,4.89c.21,1.14,.41,2.3,.58,3.44,.08,.52,.52,.91,1.04,.92,7.13,.1,16.13,.23,22.57,.35,4.64-.21,6.76-.36,7.74-.46,.04,0,.08,0,.11-.02,4.17-.86,8.31-1.2,11.96-1.5,1.24-.1,2.4-.2,3.53-.31l3.02-.29c1.87-.36,4.66-.77,7.84-.77,4.22,0,7.97,.74,11.13,2.21,.57,.27,1.19,.4,1.8,.4,.82,0,1.6-.24,2.26-.7,4.09-2.8,9.16-4.48,14.68-4.85,.78-.06,1.62-.08,2.58-.08,.58,0,1.14,.01,1.64,.02h.27c.98,.05,1.97,.16,2.92,.33,.06,.01,.12,.02,.19,.02h.05c.72-.03,1.65-.13,2.64-.23,1.94-.2,4.31-.45,7.01-.47,.88,0,1.72,.03,2.57,.09l4.77,.32c2.1,.14,4.07,1.05,5.54,2.56,.76,.78,1.81,1.22,2.9,1.22,1.67,0,3.32,.03,4.93,.07,1.17,.02,2.32,.05,3.44,.05h.63s52.79-4.32,52.79-4.32c.24-.02,.47-.03,.71-.03,1.87,0,3.66,.6,5.16,1.73,.98,.74,2.21,1.14,3.55,1.14,.12,0,.24,0,.36-.01l51.38-2.77c.16,0,.31-.01,.47-.01,4.27,0,7.92,3.2,8.48,7.44,.2,1.48,1.47,2.6,2.97,2.6,.14,0,.29-.01,.43-.03,1.42-.21,2.89-.31,4.37-.31,2.91,0,5.96,.41,9.06,1.21,.48,.12,.96,.19,1.45,.19,.75,0,1.49-.15,2.2-.43,1.08-.43,2.3-.76,3.64-.95,2.72-.4,6.98-.64,18.24-1.03,1.36-.05,2.56-.08,3.62-.1,12.69-.73,22.28-1.3,28.53-1.72,1.02-.07,1.92-.67,2.39-1.62,.67-1.33,1.49-2.6,2.45-3.76l.17-.2c2.23-2.56,4.62-3.93,6.22-4.74l.11-.06c2.15-1.04,4.25-1.7,6.42-2,.71-.1,1.41-.16,2.15-.18h.25c1.33,0,2.29,.09,2.65,.12,.45,.02,.84,.06,1.23,.14,.52,.06,.97,.15,1.41,.28l.51,.15c4.44,1.24,8.35,3.85,11.01,7.33,.25,.32,.48,.65,.71,.98,.56,.83,1.49,1.33,2.48,1.33,.66,0,1.3-.22,1.84-.62,1.06-.8,2.3-1.34,3.6-1.58l19.96-3.68c.52-.1,1.05-.14,1.56-.14,4.1,0,7.63,2.93,8.4,6.96l.14,.74,.36,1.65c.38,1.74,1.94,2.99,3.72,2.99,2.61,0,5.33,.3,8.12,.88l13.2,2.14c4.51,.73,7.65,4.86,7.13,9.41l-.24,2.17c-.01,.22-.03,.37-.05,.53l-.6,5.19c-.11,.91-.18,2.05-.25,3.06-.16,2.49-.35,5.32-1.01,8.19l-.1,.45c-.19,.85-.16,1.77,.08,2.66,.18,.66,.35,1.34,.48,2.02,.3,1.53,1.2,2.83,2.49,3.55,5.05,2.85,7.63,8.47,6.57,14.34-.23,1.27-.66,2.48-1.26,3.6-2.41,4.43-6.83,7.14-11.81,7.24h-.31c-1.97,0-3.86-.39-5.63-1.18-.65-.29-1.33-.43-2.02-.43-.74,0-1.45,.17-2.11,.49,0,0-.45,.22-.45,.22-.21,.1-.42,.19-.64,.28l-.16,.06c-3.55,1.43-7.51,2.23-11.47,2.31-.23,0-.45,0-.68,0h-.61c-3.97-.08-8.76-.94-13.15-2.36-.47-.15-.95-.23-1.44-.23-.61,0-1.21,.12-1.77,.35-4.63,1.93-9.13,2.92-14.14,3.13l-.72,.02c-.21,0-.46,0-.71,0-.61,0-1.22-.02-1.82-.05-.02,0-.13,0-.15,0-.96,0-1.84,.52-2.31,1.36-.47,.84-.45,1.84,.06,2.67,3.38,5.48,5,11.79,4.68,18.25-.84,16.95-15.09,30.23-32.45,30.23H240.12c-17.38,0-31.96-13.81-32.51-30.79-.28-8.67,2.89-16.88,8.93-23.13,.66-.69,.95-1.65,.75-2.58-.19-.9-.81-1.65-1.66-2.01-1.34-.55-2.65-1.24-3.91-2.05-.06-.04-.26-.17-.3-.2-.54-.37-.93-.67-1.22-.91-1.08-.82-2.35-1.25-3.63-1.25-.26,0-.52,.02-.79,.05l-12.33,1.65-.33,.05-4.65,.61c-1.39,.18-5.48,1.01-7.93,1.51l-.28,.06c-3.61,.73-7.34,1.48-10.28,1.88-.1,.01-.19,.02-.28,.03-.42,.05-.97,.1-1.67,.11-.16,0-.3,0-.44,0-.45,0-.93-.03-1.42-.08-.19-.02-.39-.03-.58-.03-2.28,0-4.21,1.53-4.69,3.72-3.28,15.1-10.9,28.89-22.02,39.89-15.36,15.19-35.78,23.56-57.5,23.56"/><path d="M649.88,89.08h-.03c-2.82,.06-5.02,2.3-4.96,5.01,.06,2.73,2.35,4.87,5.17,4.81,2.82-.06,4.99-2.3,4.93-5.03-.06-2.71-2.32-4.85-5.11-4.79m.15,8.6c-2.05,.04-3.59-1.57-3.64-3.59-.04-2.08,1.43-3.74,3.42-3.78h.02c2.08-.05,3.62,1.55,3.67,3.6,.04,2.05-1.43,3.76-3.48,3.77m1.15-3.64v-.06c.62-.18,1.04-.59,1.03-1.05,0-.45-.22-.79-.51-.98-.35-.22-.81-.35-1.83-.33-.94,.02-1.67,.15-1.98,.21l.1,4.53,1.39-.03-.04-1.65h.46c.46-.02,.68,.2,.78,.66,.09,.4,.18,.8,.33,.96l1.57-.03c-.09-.17-.18-.42-.34-1.07-.16-.66-.45-1.02-.96-1.15m-1.4-.31h-.4s-.02-1.07-.02-1.07c.12,0,.29-.03,.46-.04,.49-.01,.8,.18,.81,.55,0,.31-.33,.55-.84,.56m-3.92-7.34l.03-.38,.02-.17,.21-2.49,.04-.39-.02-.39c-.1-1.65-.43-3.19-.94-4.64-.19-.75-.42-1.47-.71-2.17h.04l.93-4.07c.5-2.2,.66-4.55,.81-6.83,.08-1.25,.16-2.42,.29-3.49l.6-5.19h-.01s.3-2.68,.3-2.68l-13.38-2.17c-8.91-1.92-14.15,.37-16.23,1.65l-1.54-8.07-1.26-5.8-.16-.86-5.28,.97-8.22,1.51-6.46,1.19,.32,.81h0l2.53,6.68,1.06,2.68c-11.61-1.9-17.46,1.61-19.72,3.57l.29-2.46s.01-.05,.02-.07c.69-3,.89-5.26,.82-6.97,.02-.29,.05-.58,.04-.88-.04-2.3-.79-4.68-2.33-6.68-1.54-2.01-3.84-3.54-6.56-4.3l-.51-.14-.41-.04-.21-.06c-.18,.02-.91-.12-2.4-.12-.31,0-.69,.03-1.11,.09-1.41,.19-2.65,.62-3.89,1.22-1.27,.64-2.5,1.44-3.62,2.73-1.11,1.35-1.93,2.94-2.36,4.79-.4,.99-.68,2.05-.81,3.12-3.15,.36-21.27,1.44-36.47,2.31-1.07,.02-2.28,.05-3.68,.1-20.95,.73-19.67,.98-19.91,3.02-.05,.45-.09,1.17-.11,1.95-18.38-9.01-27.42-.22-30.01,3.11l.07-1.6c.12-3.01-.07-6.73-.53-10.2l-.66-4.95-4.98,.27c-5.91,.32-11.83,.64-17.75,.96l-2.19,.12-4.88,.26h0s-.59,.03-.59,.03l-8.92,.48c-3.61,.2-7.22,.39-10.84,.58l-4.29,.23-.73,4.23c-.53,3.06-.18,6.43,.12,9.41,.05,.45,.09,.88,.13,1.3l.43,4.47,4.07,.36c.27,5.11,.54,10.23,.81,15.35l.1,1.91c-.09,.03-.17,.06-.26,.09l-3.58,1.18-.12,3.77c-.09,2.92,.08,6.29,.5,9.76,.16,1.99,1.39,5.72,8.3,5.57,2.56-.05,5.97-.48,9.59-.94,2.8-.35,5.69-.72,7.71-.83l.58-.03h0s4.89-.26,4.89-.26c4.19-.23,8.38-.46,12.56-.68l7.37-.4,4.9-.26,.04-1.13c3.84,2.92,10.05,4.81,15.63,4.69,1.11-.02,2.18-.13,3.18-.3,1.78-.33,3.25-.72,4.38-1.18,.76-.31,1.86-.92,1.86-.92l1.12-.6,.06-.03,.05-.03c.3-.18,.6-.32,.77-.46,.05-.03,.99-.59,2.74-2.33,2.69-2.68,4.81-6.44,6.05-10.59,.99,3.23,2.08,6.49,3.28,9.81l1.36,3.77,4.01-.21,5.3-.29,5.47-.3,4.14-.22,.85-4.05c.24-1.16,.5-2.34,.76-3.52,.39,1.18,.81,2.37,1.23,3.56l1.36,3.78,4.01-.22,3.35-.18c2.47-.13,4.94-.26,7.41-.4l3.8-.21,.32,3.22,1.27,.05,3.91,.22c6.47,.36,12.93,.72,19.4,1.08l4.92,.28,.39-2.64c.06,.04,.11,.09,.17,.13,3.62,2.77,9.04,4.35,14.49,4.23,.17,0,.34,0,.51-.02,7.01-.29,11.54-2.49,15.85-4.67,.17,.09,.33,.18,.48,.27,.71,.39,1.31,.61,1.85,.8,.16,.06,.34,.12,.55,.2,2.87,1.1,7.82,2.42,12.26,2.5,.33,0,.64,0,.95,0,2.94-.06,5.89-.66,8.54-1.73l.16-.06,.16-.08c5.15-2.47,8.4-6.52,9.66-12.04l.09-.38Zm-242.01-46.81l-53.13,4.35h-1.06c-2.63-.02-5.44-.13-8.3-.13-.86,0-1.73,.02-2.6,.04h0s-6.34-.35-6.34-.35l-.1-3.49-4.76-.32c-.66-.05-1.3-.07-1.93-.07-4.24,.03-7.69,.75-10.3,.72-.08,0-.2,0-.36,0,.06,0,.05,0,.05,0-.24,0-1.11-.28-2.63-.34-.47-.01-.99-.02-1.53-.02-.64,0-1.31,.01-2.01,.06-4.86,.33-9.36,2-12.65,5.21-1.67,1.62-2.94,3.6-3.78,5.79-.37-.8-.82-1.61-1.41-2.4-.53-.73-1.22-1.43-1.82-1.9-.08-.07-.15-.12-.23-.17-4.75-5.13-14.84-3.36-17.1-2.88l-3.48,.34c-4.71,.47-9.98,.68-15.05,1.77-1.65,.2-5.22,.39-9,.56-10.18-.19-27.18-.41-31.51-.47v-.47c-.11-3.54-.61-7.4-1.23-10.74l-.93-4.89-4.94,.66c-6.64,.88-13.29,1.77-19.94,2.66l-.83,.11h-.03s-1.82,.25-1.82,.25l-2,.27h0s-4.26,.59-4.26,.59c-5.58,.58-11.21,1.57-16.37,2.15l-4.44,.5-.23,4.46c-.02,.32-.02,.62-.02,.93,0,.86,.07,1.57,.11,2,.22,1.96,.44,3.86,.66,5.77,.12,1.12,.32,2.17,.67,3.19l1.2,3.49,3.37,.06c.66,5.75,1.31,11.5,1.97,17.24l-3.73,.65,.04,2.85h-.01s.12,3.97,.12,3.97c.03,.67,.07,1.46,.23,2.42,.21,1.85,.43,3.71,.64,5.57l.04,.34,.03,.34,.02,.16c.05,0,.03,.53,.58,2.23h0c.09,.17,.26,1.2,1.42,2.53,1.18,1.37,3.32,2.04,4.62,1.96,.41,0,.71-.03,.96-.06h.06s.02-.01,.02-.01c2.71-.36,6.38-1.11,9.96-1.83,3.52-.72,7-1.42,8.56-1.62l4.65-.61h0s.83-.12,.83-.12c6.37-.85,12.73-1.7,19.09-2.54,.49,.8,.87,1.14,1.05,1.36,.06,.06,.1,.11,.13,.14,.6,.81,1.44,1.73,2.39,2.41,.1,.09,.33,.28,.76,.58l.04,.03,.04,.02c1.66,1.06,3.64,1.97,5.99,2.33,.96,.14,1.88,.21,2.78,.21,1.63,.01,3.13-.23,4.46-.6l4.36,.2c5.2,.24,10.41,.49,15.63,.74l5.27,.25,.28-3.43,.38-.02c5.28-.25,10.57-.49,15.85-.74l5.11-.24c.17-.01,.35-.02,.52-.03l1.62-.08c4.95-.24,9.9-.47,14.85-.7,.69,1.62,1.47,2.96,2.71,4.21,.48,.47,1.19,1.22,2.28,1.96,.14,.1,.25,.21,.44,.32l.1,.08c.16,.13,.31,.18,.52,.34l.21,.13,.24,.12c2.92,1.4,5.71,1.65,8.26,1.89,1.12,.09,2.24,.13,3.35,.13,4.7-.02,9.25-.7,13.16-2.42,1.41-.64,2.64-1.39,3.71-2.15,1.09-.81,1.89-1.41,2.84-2.55,.39-.49,.86-1.15,1.27-1.88,6.45,.36,12.89,.72,19.34,1.08l4.99,.28,.71-4.95c.36-2.54,.55-5.44,.55-8.16,0-.78-.02-1.54-.05-2.27l-.21-4.56-3.8-.5c.1-2.12,.2-4.25,.31-6.37,1.05,.05,2.08,.24,2.81,.49l6.05,2.04,1.02-5.96c2.62,6.79,5.61,13.07,8.62,19.14-1.11-.08-2.25-.29-3.74-.56l-5.47-.97-.63,5.52c-.25,2.45-1.53,14.09-1.53,14.09l3.93,1.36c1.83,.64,3.96,1.18,6.33,1.39,1.27,.29,4.38,.69,9.15-.76,6.38-1.94,8.77-6.04,8.77-6.04,6.64-6.2,11.61-34.63,12.04-37.16,.02-.1,.05-.21,.08-.31,.03-.01,.06-.02,.09-.03l3.32-1.39-.03-.79c1.36-7.22-1.36-17.93-1.36-17.93"/></g><g class="cls-3"><rect class="cls-2" x="365.05" y="42.65" width="36.68" height="53.72"/></g><g class="cls-9"><rect class="cls-30" x="159.65" y="33.37" width="52.74" height="53.25"/></g><g class="cls-12"><rect class="cls-28" x="211.12" y="49.09" width="39.15" height="38.26"/></g><g class="cls-11"><rect class="cls-29" x="252.38" y="45.95" width="42.22" height="38.9"/></g><g class="cls-10"><rect class="cls-33" x="296.1" y="42.74" width="33.5" height="51.55"/></g><g class="cls-16"><rect class="cls-31" x="332.48" y="47.43" width="28.66" height="36.72"/></g><g class="cls-15"><rect class="cls-32" x="414.43" y="42" width="49.39" height="49.85"/></g><g class="cls-13"><rect class="cls-26" x="463.85" y="52.91" width="34.8" height="37.29"/></g><g class="cls-14"><rect class="cls-27" x="499.94" y="48.94" width="52.66" height="38.43"/></g><g class="cls-17"><rect class="cls-38" x="576.25" y="54.1" width="32.85" height="37.65"/></g><g class="cls-21"><rect class="cls-39" x="611.97" y="53.43" width="30.27" height="38.02"/></g><g class="cls-23"><rect class="cls-37" x="555.11" y="54.77" width="20.77" height="36.82"/></g><g><path class="cls-7" d="M570.77,36.69l-.08-.02h-.08c-.7-.03-1.45-.19-2.38-.18-.2,0-.42,.02-.64,.05-1.83,.21-4.14,1.15-5.49,2.55-1.08,1.15-1.96,3.04-1.92,5.13,0,.24,.02,.49,.06,.75,.16,1.24,.4,1.92,1.08,2.92,.87,1.34,2.16,2.22,3.69,2.99,1.37,.6,2.65,.78,3.82,.76,1.11-.02,2.11-.23,2.99-.46,1.62-.46,3.43-1.82,4.36-3.24,.78-1.23,1.18-2.64,1.15-4.07-.04-3.06-2.21-6.1-6.54-7.19"/><polygon class="cls-7" points="614.46 56.82 611.17 42.92 602.86 44.44 608.14 57.62 614.46 56.82"/><path class="cls-7" d="M368.33,95.14l-.32-.11-.02-.33c-.02-.34-.02-.66-.02-.97,0-3.38,.77-6.07,1.1-9.03l.06-.52,.52,.09c1.77,.31,3.46,.67,5.43,.67,.71,0,1.46-.05,2.26-.15,1.45-.6,1.77-2.41,2.3-4.32-3.94-7.86-7.83-15.83-10.97-24.66-.43-.16-1.08-.21-1.79-.2-.23,0-.46,0-.7,0h-.42s-.07-.41-.07-.41c-.41-2.27-.65-5.21-.65-7.68,0-.39,0-.78,.02-1.14v-.36s.36-.1,.36-.1c3.56-.99,7.7-1.43,11.75-1.93l.39-.05,.13,.37c2.02,5.73,4.08,11.39,6.06,17.29,.46,1.34,.91,2.69,1.3,4.15,0-.01,.01-.02,.02-.04,.41-4.26,1.53-7.88,2.28-11.74-.54-.21-1.62-.17-2.53-.46l-.26-.1-.05-.28c-.43-2.27-.65-5.25-.65-7.73,0-.38,0-.75,.02-1.1v-.45s.46-.03,.46-.03c5.34-.38,10.69-.76,16.03-1.15l.4-.03,.11,.39c.76,2.73,.72,5.91,.82,8.84v.34s-.3,.13-.3,.13c-.75,.31-1.56,.52-2.21,.79-1.01,3.84-2.01,7.94-3.17,12.18-.55,1.98-.95,4.11-1.53,6.19-.24,.87-.52,1.57-.72,2.37-.11,.45-.29,.94-.43,1.48-.12,.4-.29,.95-.43,1.46-.57,2-1.32,4.41-2.23,6.65-.75,1.83-1.46,3.82-2.52,5.45-1.82,2.77-3.83,4.4-5.13,5.33-1.04,.74-2.79,1.51-4.55,1.82-1.18,.21-2.3,.3-3.37,.3-2.54,0-4.77-.52-6.79-1.22m6.79,.23c1.01,0,2.07-.09,3.2-.28,1.57-.27,3.27-1.02,4.14-1.65,1.24-.89,3.14-2.42,4.87-5.06,.98-1.49,1.68-3.43,2.44-5.28,.89-2.19,1.63-4.58,2.19-6.55,.15-.53,.32-1.08,.44-1.46,.16-.56,.33-1.06,.43-1.45,.22-.87,.5-1.58,.72-2.39,.57-2.03,.97-4.16,1.53-6.19,1.17-4.3,2.2-8.48,3.22-12.39l.06-.23,.21-.1c.71-.32,1.48-.53,2.14-.77-.08-2.7-.09-5.51-.67-7.86-5.06,.37-10.12,.72-15.17,1.09,0,.2,0,.41,0,.63,0,2.31,.2,5.11,.58,7.25,.74,.17,1.92,.03,2.79,.69l.23,.19-.06,.29c-.78,4.11-1.95,7.8-2.34,12.11l-.02,.18-.1,.1s0,.05,0,.1c0,.2,.07,.53,.07,.88,.03,.3-.18,.97-.79,1.01l-.15,.02-.13-.07c-.93-.57-.59-1.54-.71-1.72-.4-1.6-.89-3.05-1.39-4.52-1.94-5.76-3.95-11.29-5.93-16.9-3.79,.46-7.6,.89-10.86,1.76,0,.24,0,.49,0,.74,0,2.26,.21,4.96,.56,7.1,.1,0,.19,0,.29,0,.84,0,1.69,.02,2.42,.39l.17,.09,.06,.19c3.15,8.91,7.08,16.94,11.07,24.92l.08,.17-.05,.19c-.56,1.81-.78,4.22-2.99,5.16l-.06,.03h-.06c-.88,.13-1.69,.18-2.46,.18-1.89,0-3.51-.3-5.09-.59-.37,2.84-1.03,5.35-1.03,8.39,0,.19,0,.39,0,.59,1.86,.62,3.87,1.06,6.14,1.06"/><path class="cls-7" d="M165.61,86.12c-.33-1.45-.63-3.23-.82-4.68-.19-1.46-.34-3.19-.38-4.6v-.43s4.17-1.22,4.17-1.22l-3.27-25.48-4.36-.13-.1-.42c-.32-1.38-.61-3.09-.8-4.55-.19-1.46-.35-3.25-.4-4.74v-.51s21.05-2.71,21.05-2.71l.11,.5c.33,1.44,.63,3.22,.81,4.68,.19,1.46,.34,3.19,.38,4.6v.42s-3.42,1.13-3.42,1.13l.88,6.86,11.55-1.48-.88-6.86-3.6-.23-.09-.4c-.32-1.38-.61-3.09-.8-4.55-.19-1.46-.35-3.25-.4-4.73l-.02-.51,21.06-2.71,.11,.5c.33,1.44,.63,3.22,.82,4.68,.19,1.45,.34,3.19,.38,4.59v.43s-4.17,1.23-4.17,1.23l3.27,25.48,4.36,.13,.09,.42c.32,1.38,.61,3.09,.8,4.55,.19,1.45,.35,3.25,.4,4.73l-.56,.02,.56-.02v.51s-21.05,2.7-21.05,2.7l-.11-.49c-.33-1.45-.63-3.23-.82-4.68-.18-1.46-.34-3.19-.38-4.6v-.42s3.42-1.13,3.42-1.13l-.99-7.68-11.55,1.48,.99,7.68,3.6,.22,.1,.41c.32,1.38,.61,3.09,.8,4.55,.19,1.46,.35,3.25,.4,4.74l.02,.51-21.07,2.71-.11-.49Zm.29-4.82c.16,1.26,.41,2.78,.69,4.08l19.04-2.45c-.06-1.33-.2-2.86-.37-4.12-.16-1.28-.41-2.78-.69-4.03l-3.69-.23-1.25-9.71,13.78-1.77,1.25,9.7-3.51,1.16c.05,1.28,.19,2.8,.35,4.07,.16,1.25,.41,2.78,.69,4.08l19.04-2.45c-.06-1.33-.21-2.87-.37-4.12-.16-1.27-.41-2.76-.68-4.01l-4.44-.13-3.51-27.37,4.26-1.25c-.06-1.28-.19-2.78-.35-4.06-.16-1.26-.41-2.78-.69-4.08l-19.04,2.44c.06,1.33,.2,2.86,.37,4.12,.16,1.28,.41,2.78,.68,4.03l3.69,.23,1.14,8.89-13.78,1.77-1.14-8.89,3.51-1.16c-.06-1.28-.19-2.79-.36-4.07-.16-1.25-.41-2.78-.68-4.08l-19.04,2.45c.06,1.33,.2,2.87,.37,4.12,.16,1.27,.41,2.76,.68,4.02l4.45,.13,3.52,27.37-4.27,1.25c.05,1.28,.19,2.78,.35,4.06"/><path class="cls-7" d="M233.13,86.73l.23-2.86c-2.65,2.07-5.31,3.22-8.78,3.21-.21,0-.42,0-.64-.01-5.91-.16-10.01-3.84-9.94-11.27,0-.28,0-.57,.02-.86l.57-15.14-3.37-.54-.03-.45c-.05-.88-.07-1.78-.07-2.67,0-.6,.01-1.19,.03-1.78,.05-1.46,.18-2.91,.37-4.3l.06-.43,.43-.05c2.88-.35,6.49-.49,10.02-.49,1.78,0,3.55,.03,5.19,.1l.58,.02-.76,10.63-.51,13.58c0,.12,0,.23,0,.33,0,.98,.18,1.48,.53,1.79,.35,.32,1.06,.54,2.32,.58,.07,0,.15,0,.24,0,1.13,0,2.81-.28,4.11-.85l.57-15.11-3.77-.82-.02-.42c-.05-.85-.08-1.73-.08-2.62,0-.56,0-1.13,.03-1.7,.05-1.46,.18-2.98,.37-4.43l.07-.5,16.59,.62-.75,10.29-.61,16.27,4.04,.83,.03,.43c.05,.85,.08,1.73,.08,2.62,0,.56-.01,1.13-.03,1.7-.05,1.46-.18,2.98-.38,4.43l-.07,.5-16.66-.63Zm16.18,.05l.02-.56-.02,.56Zm-15.84-4.25l1.13,.04-.25,3.08,14.48,.55c.15-1.26,.26-2.57,.3-3.82,.02-.55,.03-1.11,.03-1.66,0-.72-.02-1.43-.05-2.12l-4.13-.85,.65-17.23,.67-9.15-14.41-.54c-.15,1.27-.26,2.57-.3,3.83-.02,.55-.03,1.1-.03,1.65,0,.72,.02,1.43,.05,2.13l3.86,.84-.63,16.71-.3,.15c-1.56,.77-3.51,1.11-4.9,1.11-.09,0-.19,0-.28,0-1.34-.06-2.32-.26-3.02-.87-.7-.62-.91-1.54-.91-2.62,0-.12,0-.25,0-.37l.51-13.6,.68-9.49c-1.46-.05-3.01-.08-4.57-.08-3.33,0-6.72,.13-9.46,.43-.15,1.22-.26,2.49-.31,3.76-.02,.57-.03,1.15-.03,1.74,0,.72,.02,1.45,.05,2.16l3.45,.55-.61,16.14c-.01,.27-.02,.55-.02,.81,.07,7.03,3.4,9.89,8.86,10.16,.2,0,.4,.01,.6,.01,3.39,0,5.8-1.12,8.5-3.31l.16-.13h.21Z"/><path class="cls-7" d="M254.72,84.35c-.23-1.44-.39-2.94-.48-4.39-.06-.92-.09-1.85-.09-2.76,0-.52,.01-1.03,.03-1.53l.02-.43,3.99-.93-.97-15.67-4.19-.15-.07-.45c-.23-1.44-.39-2.95-.48-4.39-.06-.92-.09-1.84-.09-2.75,0-.52,.01-1.03,.03-1.53l.02-.43,.42-.09c4.23-.95,10.54-1.61,15.39-1.92l.59-.04,.04,3.72c3.07-3.44,5.93-4.46,9.21-4.64,.31-.02,.61-.03,.91-.03,5.38-.06,9.67,3.31,10.09,11.03l.96,15.36,3.94,.43,.07,.42c.22,1.37,.39,2.94,.47,4.26,.06,.98,.09,1.98,.09,2.98,0,.48,0,.96-.02,1.43v.51s-18.84,1.17-18.84,1.17l-.08-.5c-.23-1.44-.39-2.95-.48-4.39-.06-.93-.09-1.86-.09-2.78,0-.51,0-1.01,.03-1.5v-.39s2.58-.83,2.58-.83l-.84-13.43c-.06-.96-.25-1.55-.56-1.87-.3-.32-.84-.54-1.92-.54-.18,0-.38,0-.59,.02-1.3,.08-2.91,.52-4.2,1.27l.93,14.99,2.65,.51,.06,.39c.22,1.37,.38,2.81,.47,4.25,.06,.98,.09,1.99,.09,2.99,0,.48,0,.96-.02,1.43l-.02,.51-18.96,1.18-.08-.5Zm.55-7.15c0,.88,.03,1.79,.09,2.69,.08,1.25,.21,2.53,.39,3.78l16.92-1.05c0-.3,0-.59,0-.89,0-.98-.03-1.96-.09-2.91-.08-1.28-.21-2.55-.4-3.76l-2.73-.52-1.03-16.53,.28-.18c1.54-.97,3.42-1.51,5.01-1.61,.23-.02,.45-.02,.66-.02,1.2,0,2.12,.25,2.73,.89,.61,.65,.8,1.52,.87,2.57l.89,14.29-2.65,.86c-.01,.35-.01,.71-.01,1.07,0,.89,.03,1.8,.09,2.71,.08,1.24,.21,2.53,.39,3.78l16.79-1.04c0-.29,.01-.59,.01-.89,0-.98-.03-1.96-.09-2.91-.07-1.14-.21-2.5-.39-3.73l-4.03-.44-1.02-16.3c-.52-7.34-4.07-9.92-8.97-9.98-.28,0-.56,0-.84,.03-3.24,.22-5.73,1.09-8.85,4.75l-.15,.18h-.24s-1.13,.08-1.13,.08l-.05-4.02c-4.55,.3-10.26,.92-14.2,1.76,0,.35-.01,.7-.01,1.06,0,.88,.03,1.78,.09,2.68,.08,1.26,.21,2.57,.4,3.83l4.28,.15,1.1,17.63-4.08,.95c-.01,.35-.01,.7-.01,1.06"/><path class="cls-7" d="M296.58,84.8c0-.14-.01-.28-.01-.42-.01-2.08,.78-4.12,2.97-5.93-.87-1.31-1.98-3.24-2.55-4.67l-.05-.12v-.13c.2-2.19,1.47-5.07,3.05-8.36-2.23-1.86-3.64-4.56-3.81-8.51-.01-.29-.02-.58-.02-.86-.05-7.38,4.66-12.56,13.22-12.89,.42-.02,.85-.03,1.27-.03,1.75,0,3.47,.16,4.88,.42l12.12-.55,.03,.56c.04,.95,.07,1.92,.07,2.89,0,1.73-.09,3.45-.33,4.98l-.06,.41-3.21,.47c.51,1.02,.87,2.44,.95,3.9,.01,.28,.02,.55,.02,.82,.05,7.62-5.2,11.42-12.8,11.7-.31,.01-.62,.02-.92,.02-1.13,0-2.21-.09-3.09-.27-.23,.6-.36,1.02-.36,1.47,0,.04,0,.07,0,.11,.01,.39,.1,.51,.12,.52,.02,.02,.13,.1,.51,.09,.05,0,.12,0,.19,0l8.46-.39c.49-.02,.98-.04,1.45-.04,6.16-.1,10.62,2.35,10.89,10.14,.01,.26,.02,.51,.02,.76,.04,7.58-5.44,12.9-16.63,13.35-.71,.03-1.4,.05-2.05,.05-.09,0-.18,0-.27,0-9.61,0-13.81-3.8-14.02-9.49m4.17-6.56l.31,.44-.43,.33c-2.27,1.75-2.92,3.45-2.94,5.37,0,.12,0,.24,0,.37,.28,5.09,3.55,8.35,13.18,8.42,.64,0,1.31-.02,2-.05,10.91-.56,15.52-5.28,15.56-12.24,0-.24,0-.48-.01-.71-.43-7.32-3.82-8.97-9.77-9.06-.45,0-.92,.01-1.4,.04l-8.48,.38c-.07,0-.15,0-.23,0-.47,0-.93-.07-1.28-.4-.35-.34-.44-.8-.46-1.26,0-.07,0-.14,0-.18,0-.82,.28-1.5,.62-2.33l.18-.46,.48,.12c.82,.21,2.03,.34,3.29,.34,.29,0,.58,0,.87-.02,7.32-.4,11.69-3.56,11.74-10.58,0-.25,0-.51-.02-.77-.06-1.39-.46-2.8-.92-3.62l-.06-.11v-.13s-.05-1.04-.05-1.04l3.43-.5c.18-1.34,.26-2.86,.26-4.4,0-.76-.02-1.53-.05-2.29l-11.14,.51h-.06c-1.33-.26-3.02-.42-4.73-.42-.4,0-.81,.01-1.22,.03-8.13,.43-12.1,4.89-12.15,11.78,0,.26,0,.53,.02,.81,.19,3.91,1.56,6.26,3.73,7.96l.36,.28-.2,.41c-1.62,3.35-2.91,6.31-3.11,8.24,.6,1.45,1.86,3.59,2.67,4.75m6.89,6.68c-.83-.62-1.1-1.62-1.15-2.86,0-.06,0-.11,0-.15,0-.49,.1-1.15,.22-1.6l.11-.39,10.28-.47h0c.11,0,.21,0,.3,0,.48,0,.98,.06,1.38,.45,.38,.39,.49,.91,.52,1.59,0,.07,0,.16,0,.26,.03,1.3-.54,2.39-1.66,2.96-1.1,.59-2.63,.81-4.78,.92-.63,.03-1.19,.05-1.71,.05-1.59,0-2.7-.14-3.52-.74m-.04-3.01s0,.06,0,.08c.06,1.17,.28,1.72,.7,2.03,.43,.34,1.32,.52,2.85,.52,.49,0,1.04-.02,1.66-.04,2.08-.09,3.5-.34,4.3-.78,.78-.45,1.05-.93,1.07-1.98,0-.07,0-.15,0-.22-.03-.56-.14-.78-.2-.83-.04-.05-.18-.12-.59-.12-.08,0-.16,0-.24,0l-.04-.56,.03,.56-9.45,.43c-.05,.31-.1,.69-.09,.91m.11-22.45c-.66-.85-.93-2.05-1.01-3.69-.01-.22-.02-.44-.02-.64,0-1.53,.28-2.63,.98-3.37,.71-.74,1.7-.99,2.86-1.04h0c.15-.01,.3-.01,.43-.01,1.11,0,2.12,.23,2.82,1.02,.7,.79,1.01,1.96,1.09,3.67,0,.21,.01,.42,.01,.63,0,1.53-.28,2.67-.97,3.46-.7,.79-1.73,1.1-2.94,1.15-.11,0-.23,0-.35,0h-.05c-1.19,0-2.21-.34-2.87-1.18m2.87-7.63c-1.05,.05-1.71,.27-2.1,.69-.41,.42-.68,1.2-.68,2.6,0,.18,0,.38,.01,.58,.07,1.56,.35,2.53,.77,3.06,.42,.52,.99,.75,2.03,.76,.09,0,.2,0,.31,0,1.06-.05,1.72-.3,2.14-.77,.42-.47,.69-1.31,.69-2.72,0-.19,0-.38-.01-.59-.07-1.59-.39-2.5-.81-2.96-.41-.46-1-.65-1.99-.65-.12,0-.25,0-.37,0l-.03-.56,.03,.56Z"/><path class="cls-7" d="M332.54,82.96l-.02-.51c-.02-.53-.03-1.07-.03-1.62,0-.91,.03-1.82,.08-2.71,.08-1.42,.24-2.83,.45-4.17l.07-.42,3.98-.43,.9-15.33-4.06-.64-.02-.46c-.02-.53-.03-1.07-.03-1.62,0-.91,.03-1.82,.08-2.71,.09-1.41,.24-2.82,.45-4.17l.07-.42,.43-.04c2.03-.2,4.51-.29,7.07-.29,2.77,0,5.64,.1,8.11,.24l.58,.03-.43,4.22c2.64-3.35,5.08-4.17,7.08-4.15,.17,0,.34,0,.51,.02,.93,.06,2.07,.26,2.95,.6l.38,.15-.03,.41c-.19,3.24-.87,7.95-1.55,11.47l-.12,.62-.6-.19c-1.28-.4-2.68-.68-4.03-.76-.35-.02-.7-.03-1.04-.03-1.41,0-2.66,.18-3.84,.51l-.78,13.24,4.11,.91,.02,.43c.02,.53,.03,1.07,.03,1.62,0,.85-.03,1.71-.08,2.57-.08,1.41-.24,2.89-.46,4.3l-.08,.5-20.18-1.19Zm19.23,.01c.17-1.22,.3-2.48,.37-3.69,.05-.84,.07-1.69,.07-2.51,0-.39,0-.77-.02-1.15l-4.2-.93,.88-14.97,.37-.11c1.39-.43,2.88-.67,4.54-.67,.36,0,.73,.01,1.1,.03,1.24,.07,2.51,.3,3.7,.63,.6-3.25,1.18-7.35,1.39-10.3-.67-.21-1.55-.35-2.23-.39-.14-.01-.28-.02-.43-.02-1.81,.02-3.98,.66-6.76,4.48l-.18,.25-.31-.02-1.12-.07,.48-4.78c-2.31-.13-4.93-.21-7.46-.21-2.35,0-4.64,.07-6.53,.24-.18,1.17-.3,2.4-.37,3.63-.05,.86-.08,1.75-.08,2.64,0,.37,0,.75,.02,1.12l4.14,.65-1.02,17.29-4.08,.44c-.17,1.18-.3,2.41-.37,3.64-.05,.86-.08,1.76-.08,2.64,0,.36,0,.71,.01,1.07l18.15,1.07Zm7.26-22.65l.17-.53-.17,.53Z"/><path class="cls-7" d="M417.27,91.34c-.23-1.45-.4-3.22-.49-4.67-.04-.65-.07-1.36-.08-2.07-.02-.86-.02-1.73,.01-2.5l.02-.43,4.2-.93-1.54-25.33-4.29-.42-.07-.42c-.22-1.38-.4-3.09-.49-4.54-.04-.67-.07-1.4-.09-2.14-.02-.88-.02-1.76,.01-2.56l.02-.51,20.96-1.28,.08,.5c.22,1.45,.41,3.22,.49,4.67,.04,.64,.07,1.34,.08,2.04,.02,.87,.02,1.74-.01,2.52v.42s-3.46,.88-3.46,.88l.42,6.81,11.47-.7-.42-6.81-3.53-.46-.07-.41c-.23-1.38-.4-3.09-.49-4.54-.04-.68-.07-1.44-.09-2.2-.02-.86-.02-1.72,.01-2.5l.02-.51,20.96-1.28,.08,.5c.23,1.44,.4,3.22,.5,4.67,.04,.66,.07,1.37,.08,2.08,.02,.86,.01,1.72-.02,2.48l-.02,.43-4.19,.93,1.54,25.33,4.28,.41,.07,.43c.23,1.38,.4,3.09,.49,4.54,.04,.68,.07,1.43,.08,2.18,.02,.86,.02,1.73,0,2.51l-.02,.51-20.96,1.28-.08-.5c-.23-1.45-.41-3.22-.5-4.67-.04-.65-.07-1.36-.08-2.06-.02-.86-.02-1.73,.02-2.5l.02-.42,3.46-.89-.47-7.62-11.48,.7,.46,7.63,3.54,.46,.07,.41c.22,1.38,.4,3.09,.48,4.53,.04,.67,.07,1.41,.09,2.15,.02,.87,.02,1.75,0,2.54l-.02,.51-20.97,1.28-.08-.5Zm.54-6.76c.02,.69,.04,1.39,.08,2.02,.08,1.25,.22,2.76,.41,4.06l18.93-1.16c0-.63,0-1.3,0-1.97-.02-.73-.04-1.46-.08-2.11-.08-1.27-.23-2.76-.41-4.02l-3.62-.47-.59-9.66,13.71-.84,.59,9.67-3.54,.91c-.02,.63-.02,1.32,0,2.01,.01,.69,.05,1.38,.08,2.02,.08,1.25,.22,2.76,.41,4.06l18.92-1.15c.01-.62,.01-1.28,0-1.94-.02-.74-.05-1.48-.09-2.14-.08-1.27-.22-2.75-.41-4l-4.37-.42-1.66-27.23,4.29-.96c.01-.62,.01-1.3,0-1.98-.01-.7-.04-1.4-.08-2.04-.08-1.25-.22-2.76-.41-4.06l-18.93,1.16c-.01,.61-.01,1.27,0,1.92,.02,.75,.05,1.49,.09,2.16,.07,1.27,.22,2.76,.41,4.01l3.63,.47,.54,8.85-13.71,.83-.54-8.85,3.53-.91c.02-.64,.01-1.34,0-2.04-.02-.68-.04-1.37-.08-2-.07-1.24-.22-2.76-.41-4.06l-18.93,1.15c-.01,.63-.01,1.31,0,1.98,.02,.73,.05,1.45,.09,2.1,.08,1.27,.22,2.75,.41,4l4.37,.42,1.66,27.24-4.29,.95c-.02,.63-.01,1.31,0,2"/><path class="cls-7" d="M481.83,90.17c-1.38,.03-2.8-.1-4.23-.38l.11-.55,.11-.55c1.35,.27,2.69,.39,3.99,.36,7.19-.18,13.2-4.79,15.13-14.4,.42-2.14,.6-4.08,.56-5.85-.21-8.54-5.32-12.88-12.8-14.41-1.37-.27-2.71-.39-3.99-.36-7.4,.18-13.26,5.13-15.13,14.4-.42,2.11-.6,4.04-.56,5.8,.21,8.35,5.1,12.89,12.8,14.45l-.11,.55-.11,.55c-8.05-1.56-13.55-6.69-13.7-15.53-.04-1.85,.14-3.87,.58-6.04,1.88-9.65,8.26-15.15,16.2-15.3,1.37-.03,2.79,.1,4.23,.38,7.79,1.51,13.54,6.42,13.71,15.48,.04,1.86-.15,3.88-.59,6.09-1.94,9.97-8.48,15.13-16.14,15.3h-.06m-.87-9.31c-.5,.01-1.02-.05-1.56-.15-2.48-.41-4.16-1.9-4.15-5.12-.03-1.35,.17-3.01,.59-5.12,.6-3,1.3-5,2.22-6.32,.91-1.32,2.15-1.91,3.48-1.93,.51-.01,1.03,.05,1.57,.15l-.11,.55-.11,.55c-.48-.1-.92-.14-1.33-.14-1.05,.04-1.81,.38-2.59,1.45-.77,1.09-1.46,2.96-2.04,5.89-.41,2.07-.59,3.67-.56,4.88,.14,2.89,1.03,3.52,3.25,4.04,.48,.1,.92,.14,1.32,.13,1.05-.04,1.81-.37,2.59-1.45,.77-1.09,1.46-2.96,2.04-5.89,.41-2.06,.59-3.66,.56-4.88-.14-2.89-1.03-3.53-3.25-4.04l.11-.55,.11-.55c2.48,.41,4.16,1.9,4.15,5.12,.03,1.34-.17,3.01-.58,5.12-.6,3-1.3,5-2.23,6.32-.9,1.31-2.12,1.9-3.43,1.93-.02,0-.03,0-.05,0"/><path class="cls-7" d="M510.44,86.98c-2.96-8.37-5.32-16.64-7.22-24.99l-2.74-.27-.06-.43c-.21-1.37-.28-2.81-.36-4.22-.04-.79-.08-1.61-.1-2.44-.01-.64-.01-1.29,.02-1.93l.02-.44,.44-.08c4.17-.76,8.61-1.25,12.07-1.43l.48-.02,3.59,17.34c.15,.66,.3,1.47,.43,2.36,.13-.91,.27-1.76,.43-2.44l3.46-17.46,11.3-.57,5.22,17.01c.21,.63,.4,1.4,.58,2.23,.08-.84,.18-1.61,.29-2.24l1.07-7.23-2.32-.52-.06-.38c-.2-1.35-.35-2.78-.42-4.21-.02-.43-.04-.87-.05-1.32-.02-1.02-.01-2.05,.03-3.05l.02-.51,15.47-.79,.08,.5c.21,1.42,.35,2.92,.43,4.35,.02,.44,.04,.88,.05,1.32,.02,.99,0,1.97-.04,2.92l-.02,.39-2.49,.81c-1.13,8.07-2.77,16.69-4.95,25.99l-.1,.41-11.48,.59-6.19-18.84c-.24-.68-.46-1.54-.64-2.41-.13,.89-.28,1.77-.44,2.45l-4.11,19.37-11.55,.59-.13-.39Zm-6.31-26.03l.09,.4c1.88,8.31,4.21,16.54,7.13,24.86l9.85-.5,3.94-18.55c.27-1.11,.52-2.87,.64-4.27l.04-.48,.49-.03,1.05-.05,.08,.5c.2,1.37,.56,3.1,.94,4.17l5.92,18.03,9.79-.5c2.16-9.25,3.78-17.81,4.89-25.82l.04-.35,2.42-.79c.03-.8,.04-1.62,.02-2.45-.01-.43-.03-.86-.04-1.29-.06-1.23-.18-2.5-.35-3.74l-13.43,.68c-.03,.81-.03,1.65-.02,2.47,0,.43,.03,.86,.05,1.28,.06,1.26,.19,2.52,.36,3.72l2.58,.58-1.23,8.28c-.21,1.19-.38,2.93-.44,4.66l-.02,.52-.52,.02-1.05,.05-.06-.51c-.21-1.71-.57-3.42-.95-4.58l-4.97-16.18-9.56,.49-3.3,16.62c-.27,1.19-.51,2.94-.69,4.69l-.05,.48-.48,.02-1.08,.06-.05-.54c-.15-1.71-.44-3.44-.7-4.62l-3.4-16.41c-3.2,.19-7.21,.64-11,1.31-.01,.46,0,.93,0,1.41,.02,.8,.06,1.61,.1,2.4,.06,1.26,.13,2.5,.28,3.68l2.67,.26Z"/><path class="cls-7" d="M576.63,74.33c-.04-.55-.07-1.09-.08-1.62-.29-11.63,6.37-17.95,15.21-18.54,.44-.03,.86-.05,1.28-.06,9.71-.27,14.5,5.73,15.09,14.93,.07,1.01,.14,2.39,.17,3.78,.02,.85,.02,1.7,0,2.46l-.02,.51-18.36,1.31c.15,1.36,.55,2.1,1.18,2.56,.68,.5,1.82,.71,3.46,.67,.38,0,.78-.03,1.21-.06,2.66-.19,5.46-.97,9.36-3.17l.55-.31,.24,.58c1.31,3.11,2.46,6.82,3.08,9.71l.09,.41-.37,.2c-4.55,2.45-9.05,3.52-12.28,3.76-.53,.04-1.05,.06-1.55,.07-.05,0-.11,0-.16,0-10.67,.23-17.36-5.79-18.11-17.19m15.22-19.04c-8.33,.64-14.37,6.2-14.18,17.4,.01,.51,.04,1.03,.07,1.56,.85,11.04,6.81,16.31,17.13,16.15,.49-.01,.99-.03,1.5-.07,2.98-.21,7.19-1.2,11.46-3.43-.58-2.57-1.57-5.76-2.69-8.52-3.72,2.04-6.58,2.82-9.28,3.01-.44,.03-.86,.05-1.26,.06-1.73,.03-3.1-.15-4.14-.88-1.04-.74-1.56-1.98-1.67-3.68l-.06-.82,18.46-1.32c.01-.6,0-1.25,0-1.9-.03-1.36-.1-2.74-.17-3.72-.71-8.9-4.77-14.03-13.95-13.89-.4,0-.81,.03-1.23,.06m-3.49,14.51c-.03-.41-.04-.79-.05-1.15-.16-4.45,1.49-6.62,4.01-6.76,.1-.01,.19-.01,.28-.02,2.69-.09,4.07,2.09,4.25,5.58,.02,.37,.05,.73,.06,1.12,0,.22,0,.45,0,.69l-.02,.5-7.93,.57-.55,.04-.04-.55Zm.56-.04l.56-.04-.56,.04Zm3.49-6.76c-1.81,.17-3.01,1.32-2.98,5.63,0,.18,.01,.35,.02,.54l6.35-.46s0-.08,0-.12c0-.34-.03-.69-.05-1.06-.31-3.38-1.19-4.54-3.11-4.53-.07,0-.15,0-.22,0"/><path class="cls-7" d="M627.65,91.44c-.84,.02-1.7,0-2.57-.08l.04-.56,.04-.56c.84,.07,1.66,.1,2.45,.08,7.09-.19,12.28-3.62,12.88-10.52,.03-.45,.05-.87,.04-1.28-.12-7.59-8.03-9.78-12.34-11.72-1.38-.67-2.56-1.22-2.67-2.49,0-.07,0-.12,.01-.16,.02-1.36,.99-2.48,2.66-2.44,.22,0,.46,0,.7,.02,1.01,.09,1.8,.3,2.32,.49l.3,.11,.44,2.64c1.35,.22,3.1,.42,4.38,.53,1.24,.1,2.71,.17,3.96,.17l.74-8.88c-3-1.06-6.7-1.87-10.24-2.16-.86-.07-1.71-.1-2.53-.08-7.27,.19-12.84,3.67-13.42,10.55-.04,.39-.05,.77-.04,1.13,.1,7.16,8.01,9.02,12.38,11.07,1.4,.69,2.59,1.4,2.67,2.76,0,.06,0,.13,0,.21-.02,1.46-1.05,2.49-2.71,2.42-.32,0-.67,0-1.06-.04-1.22-.1-2.34-.41-3.2-.78l-.29-.12-.44-2.76c-1.35-.23-3.09-.43-4.38-.53-1.24-.1-2.7-.18-3.95-.17l-.69,8.36c3.17,2.02,7.27,3.19,12.04,3.59l-.04,.56-.04,.56c-5.04-.42-9.42-1.68-12.84-3.94l-.28-.18,.84-10.04h.5c1.41-.04,3.12,.04,4.57,.16,1.44,.12,3.43,.35,4.88,.61l.39,.07,.47,2.93c.7,.27,1.61,.5,2.57,.58,.36,.03,.68,.04,.95,.04,1.4-.14,1.42-.23,1.62-1.38,0-.03,0-.07,0-.1,.04-.48-.64-1.13-2.04-1.77-1.35-.65-3.22-1.31-5.11-2.18-3.76-1.72-7.79-4.44-7.9-9.87,0-.41,0-.83,.04-1.26,.62-7.56,6.94-11.44,14.51-11.57,.87-.02,1.75,.01,2.65,.08,3.8,.32,7.75,1.2,10.93,2.37l.4,.15-.89,10.74h-.51c-1.4,.03-3.13-.05-4.57-.16-1.45-.12-3.42-.35-4.87-.61l-.39-.07-.47-2.77c-.42-.13-1.01-.26-1.71-.32-.22-.02-.41-.03-.59-.02-1.3,.11-1.4,.36-1.58,1.42v.04c-.08,.25,.61,.89,2.01,1.49,1.36,.62,3.22,1.3,5.12,2.23,3.76,1.83,7.76,4.81,7.88,10.49,.01,.45,0,.91-.04,1.39-.6,7.51-6.49,11.39-13.86,11.55-.04,0-.07,0-.11,0"/><path class="cls-7" d="M555.21,90.73l-.02-.51c-.02-.44-.04-.89-.05-1.35-.02-1.01-.01-2.02,.03-3.01,.06-1.43,.19-2.85,.38-4.21l.06-.43,4.02-.5,.66-15.47-4.1-.57-.03-.46c-.02-.48-.04-.96-.05-1.45-.02-.97-.01-1.96,.03-2.92,.06-1.43,.19-2.85,.39-4.21l.06-.43,.43-.05c1.83-.22,4.08-.34,6.45-.39,3.12-.07,6.45-.01,9.25,.11l.57,.02-.79,10.42-.67,15.91,3.95,.83,.03,.42c.03,.47,.04,.95,.06,1.44,.02,.92,0,1.86-.03,2.8-.06,1.43-.19,2.92-.39,4.34l-.07,.5-20.16-.86Zm19.68,.28l.02-.56-.02,.56Zm-.49-.58c.16-1.23,.26-2.51,.31-3.73,.03-.92,.05-1.83,.03-2.73,0-.33-.01-.65-.03-.97l-4.04-.85,.72-16.88,.7-9.28c-2.65-.1-5.72-.15-8.6-.08-2.16,.05-4.21,.15-5.91,.33-.16,1.19-.27,2.43-.32,3.67-.04,.93-.05,1.89-.03,2.85,0,.32,.02,.63,.03,.95l4.19,.59-.74,17.43-4.1,.51c-.15,1.19-.26,2.43-.32,3.68-.04,.96-.05,1.95-.03,2.94,0,.27,.01,.54,.03,.81l18.12,.77Z"/></g><g class="cls-20"><rect class="cls-36" x="219.5" y="110.83" width="363.31" height="39.86"/></g><g><path d="M562.89,114.18c9.16,0,16.59,7.42,16.59,16.58s-7.43,16.59-16.59,16.59H239.43c-9.16,0-16.58-7.43-16.58-16.59s7.42-16.58,16.58-16.58h323.45m0-6.69H239.43c-12.83,0-23.27,10.44-23.27,23.27s10.44,23.27,23.27,23.27h323.45c12.83,0,23.27-10.44,23.27-23.27s-10.44-23.27-23.27-23.27"/><path class="cls-5" d="M562.89,114.18c9.16,0,16.59,7.42,16.59,16.59s-7.43,16.58-16.59,16.58H239.43c-9.16,0-16.58-7.42-16.58-16.58s7.42-16.59,16.58-16.59h323.45m0-2.14H239.43c-10.32,0-18.72,8.4-18.72,18.73s8.4,18.72,18.72,18.72h323.45c10.33,0,18.73-8.4,18.73-18.72s-8.4-18.73-18.73-18.73"/><path d="M249.79,127.96v-.91s0-4.28,0-4.28v-.91h-15s-.91,.01-.91,.01v.91s.01,17.62,.01,17.62v.91h.91s4.88,0,4.88,0h.91v-6.29s8.32,0,8.32,0v-4.97s0-.91,0-.91h-8.33s0-1.17,0-1.17h8.29s.91,0,.91,0Zm29.45-5.69l-.24-.56h-.61s-4.7,0-4.7,0h-.6l-.24,.56-6.92,16.4v-2.58s0-.91,0-.91h-8.53v-12.42s0-.91,0-.91h-.91s-4.88,.01-4.88,.01h-.91v18.53s.01,.91,.01,.91h14.13s0-.01,0-.01h1.38s5.14-.01,5.14-.01h.62s.23-.57,.23-.57l1.03-2.57h5.56s1.06,2.57,1.06,2.57l.23,.57h7.22l-.54-1.27-7.51-17.73Zm-3.86,10.24l.63-1.6,.63,1.6h-1.26Zm28.99-10.69h-1.35s-5.36,0-5.36,0h-.64l-.22,.6-3.14,8.76-3.15-8.75-.22-.6h-.64s-5.46,0-5.46,0h-1.35l.51,1.25,7.16,17.73,.23,.57h5.76l.23-.57,7.13-17.75,.51-1.25Zm8.65-.36h-.01c-2.85,0-5.49,1.05-7.43,2.95-1.93,1.89-2.99,4.42-2.99,7.13,0,5.67,4.57,10.06,10.38,10.06,2.85,0,5.49-1.05,7.43-2.95,1.93-1.89,2.99-4.42,2.99-7.13,0-5.67-4.56-10.07-10.37-10.07m3.56,10.12c0,1.08-.4,2.1-1.1,2.8-.65,.65-1.5,.99-2.47,.99h-.01c-2.24,0-3.58-1.95-3.59-3.84,0-1.14,.4-2.16,1.1-2.87,.64-.64,1.49-.98,2.44-.98,2.06,0,3.62,1.65,3.62,3.83v.06Zm42.75,3.66h-9.46s0-.96,0-.96h7.54s.91,0,.91,0v-4.77s-.01-.91-.01-.91h-8.45s0-.83,0-.83h8.43s.91-.01,.91-.01v-.91s0-4.15,0-4.15v-.91h-15.08s-.91,.01-.91,.01v18.53s.01,.54,.01,.54l-.73-1.06-3.62-5.27c2.07-1.24,3.19-3.25,3.19-5.76,0-2.02-.62-3.62-1.84-4.8-1.4-1.43-3.54-2.17-6.35-2.17h-8.35s-.91,.01-.91,.01v18.52s.01,.91,.01,.91h5.8s.91,0,.91,0v-.91s0-4.42,0-4.42h.74l3.28,4.92,.27,.41h6.13s2.39,0,2.39,0h14.3s.91,0,.91,0v-5.07s0-.91,0-.91Zm-25.71-4.99h-2.31v-2.4s2.28,0,2.28,0c1.73,0,1.73,.85,1.73,1.17,0,1.03-.93,1.24-1.7,1.24m34.59-8.49h-7.73v.91l.02,17.63v.91h.91s6.69-.02,6.69-.02c3.44,0,6.3-1.05,8.28-3.03,1.74-1.75,2.66-4.08,2.66-6.75v-.02c0-5.87-4.26-9.64-10.84-9.64m3.1,12.24c-.68,.68-1.73,1.04-3.03,1.04h-1.08v-7.13s1.07,0,1.07,0c2.5,0,3.94,1.29,3.94,3.54,0,1.1-.3,1.95-.91,2.55m30.47-.73l-.69-.5-.54,.66c-.94,1.15-1.78,1.82-3.27,1.82-1.91,0-3.29-1.6-3.3-3.8,0-1.16,.4-2.19,1.09-2.89,.59-.59,1.35-.9,2.2-.9,1.24,0,2.17,.51,3.14,1.71l.56,.7,.71-.55,3.67-2.84,.7-.54-.52-.72c-1.94-2.69-4.71-4.05-8.22-4.05-2.81,0-5.4,1.04-7.29,2.93-1.87,1.87-2.9,4.41-2.9,7.15,0,5.67,4.39,10.07,9.99,10.07,3.69,0,6.4-1.39,8.54-4.37l.54-.74-.75-.53-3.67-2.61Zm19.08,1.17c2.07-1.23,3.19-3.24,3.19-5.75,0-2.01-.62-3.61-1.84-4.8-1.41-1.43-3.55-2.17-6.35-2.17h-9.27v.91s.02,17.63,.02,17.63v.91s.91,0,.91,0h4.88s.91-.01,.91-.01v-5.33s.73,0,.73,0l3.28,4.92,.27,.41h6.12s1.73-.01,1.73-.01l-.98-1.43-3.62-5.28Zm-5.25-4.27h-2.31v-2.4s2.28,0,2.28,0c1.73,0,1.73,.86,1.73,1.18,0,1.02-.93,1.23-1.7,1.23m27.58-7.57v-.91s-.92,0-.92,0h-4.96s-.91,0-.91,0v10.82c0,1.83-.75,2.72-2.32,2.72-.58,0-2.33,0-2.33-2.84v-9.79s-.01-.91-.01-.91h-.91s-4.96,0-4.96,0h-.91v10.8c.02,5.7,3.32,8.96,9.07,8.96,2.84,0,5.06-.74,6.64-2.2,1.68-1.57,2.54-3.89,2.54-6.89v-9.77Zm33.36-.94h-15.45s-.91,.01-.91,.01v2.54l-.38-.3c-2.13-1.7-4.68-2.53-7.79-2.53h-.03c-2.26,0-4.2,.62-5.59,1.81-1.38,1.18-2.14,2.86-2.14,4.75,0,4.44,3.63,5.63,7.36,6.46,1.84,.43,2.2,.69,2.27,.78v.07c0,.12-.39,.29-1.11,.29-1.83,0-3.56-.64-5.14-1.91l-.7-.56-.57,.69-2.71,3.25-.56,.68,.66,.59c2.27,2.03,5.42,3.14,8.86,3.14,4.88,0,8.03-2.62,8.03-6.65v-.05c0-4.22-3.51-5.55-7.3-6.37-1.71-.39-2.21-.63-2.32-.77,0,0,0-.02,0-.06v-.06s.23-.21,.85-.21c1.4,0,2.97,.56,4.41,1.57l.74,.52,.52-.74,2.44-3.45,.2-.29v2.92h5.29s.01,12.41,.01,12.41v.91s.91,0,.91,0h4.88s.91,0,.91,0v-13.33s4.36,0,4.36,0h.91v-6.1h-.92Zm23.59,1.83c-1.44-1.21-3.48-1.85-5.89-1.85h-7.58s-.91,.01-.91,.01v.91s.01,17.61,.01,17.61v.91h6.71v-5.03s1.5,0,1.5,0c5.15,0,8.48-2.86,8.48-7.27,0-2.22-.8-4.04-2.32-5.3m-6.27,6.91h-1.4v-2.83h1.38c1.9,0,1.9,1.02,1.9,1.4,0,1.29-1.31,1.43-1.88,1.43m16.16-8.77h-.91s-4.9,0-4.9,0h-.91v18.53s.01,.91,.01,.91h6.73v-18.53s-.01-.91-.01-.91Zm11.05,13.48l7.47-8.43,.23-.26v-4.81h-16.19s-.91,0-.91,0v5.05s0,.91,0,.91h7.41s-7.48,8.41-7.48,8.41l-.23,.26v3.89s0,.91,0,.91h16.49s.91-.01,.91-.01v-5.95h-7.72Zm46.81,4.65l-7.51-17.73-.24-.56h-5.31s-.6,0-.6,0l-.24,.56-7.37,17.48v-4.43h-.92s-6.79,.01-6.79,.01l7.47-8.42,.23-.26v-3.89s0-.91,0-.91h-16.19s-.91,.01-.91,.01v.91s0,4.13,0,4.13v.91h7.41s-7.47,8.42-7.47,8.42l-.23,.26v3.89s0,.91,0,.91h16.49s.91-.01,.91-.01h0s.73,0,.73,0h5.13s.62,0,.62,0l.23-.57,1.03-2.57h5.56s1.05,2.57,1.05,2.57l.23,.57h5.85s1.38,0,1.38,0l-.54-1.27Zm-11.38-7.49l.64-1.61,.63,1.61h-1.27Z"/><path class="cls-4" d="M249.79,127.96v-.91s0-4.28,0-4.28v-.91h-15s-.91,.01-.91,.01v.91s.01,17.62,.01,17.62v.91h.91s4.88,0,4.88,0h.91v-6.29s8.32,0,8.32,0v-4.97s0-.91,0-.91h-8.33s0-1.17,0-1.17h8.29s.91,0,.91,0Zm29.45-5.69l-.24-.56h-.61s-4.7,0-4.7,0h-.6l-.24,.56-6.92,16.4v-2.58s0-.91,0-.91h-8.53v-12.42s0-.91,0-.91h-.91s-4.88,.01-4.88,.01h-.91v18.53s.01,.91,.01,.91h14.13s0-.01,0-.01h1.38s5.14-.01,5.14-.01h.62s.23-.57,.23-.57l1.03-2.57h5.56s1.06,2.57,1.06,2.57l.23,.57h7.22l-.54-1.27-7.51-17.73Zm-3.86,10.24l.63-1.6,.63,1.6h-1.26Zm28.99-10.69h-1.35s-5.36,0-5.36,0h-.64l-.22,.6-3.14,8.76-3.15-8.75-.22-.6h-.64s-5.46,0-5.46,0h-1.35l.51,1.25,7.16,17.73,.23,.57h5.76l.23-.57,7.13-17.75,.51-1.25Zm8.65-.36h-.01c-2.85,0-5.49,1.05-7.43,2.95-1.93,1.89-2.99,4.42-2.99,7.13,0,5.67,4.57,10.06,10.38,10.06,2.85,0,5.49-1.05,7.43-2.95,1.93-1.89,2.99-4.42,2.99-7.13,0-5.67-4.56-10.07-10.37-10.07m3.56,10.12c0,1.08-.4,2.1-1.1,2.8-.65,.65-1.5,.99-2.47,.99h-.01c-2.24,0-3.58-1.95-3.59-3.84,0-1.14,.4-2.16,1.1-2.87,.64-.64,1.49-.98,2.44-.98,2.06,0,3.62,1.65,3.62,3.83v.06Zm42.75,3.66h-9.46s0-.96,0-.96h7.54s.91,0,.91,0v-4.77s-.01-.91-.01-.91h-8.45s0-.83,0-.83h8.43s.91-.01,.91-.01v-.91s0-4.15,0-4.15v-.91h-15.08s-.91,.01-.91,.01v18.53s.01,.54,.01,.54l-.73-1.06-3.62-5.27c2.07-1.24,3.19-3.25,3.19-5.76,0-2.02-.62-3.62-1.84-4.8-1.4-1.43-3.54-2.17-6.35-2.17h-8.35s-.91,.01-.91,.01v18.52s.01,.91,.01,.91h5.8s.91,0,.91,0v-.91s0-4.42,0-4.42h.74l3.28,4.92,.27,.41h6.13s2.39,0,2.39,0h14.3s.91,0,.91,0v-5.07s0-.91,0-.91Zm-25.71-4.99h-2.31v-2.4s2.28,0,2.28,0c1.73,0,1.73,.85,1.73,1.17,0,1.03-.93,1.24-1.7,1.24m34.59-8.49h-7.73v.91l.02,17.63v.91h.91s6.69-.02,6.69-.02c3.44,0,6.3-1.05,8.28-3.03,1.74-1.75,2.66-4.08,2.66-6.75v-.02c0-5.87-4.26-9.64-10.84-9.64m3.1,12.24c-.68,.68-1.73,1.04-3.03,1.04h-1.08v-7.13s1.07,0,1.07,0c2.5,0,3.94,1.29,3.94,3.54,0,1.1-.3,1.95-.91,2.55m30.47-.73l-.69-.5-.54,.66c-.94,1.15-1.78,1.82-3.27,1.82-1.91,0-3.29-1.6-3.3-3.8,0-1.16,.4-2.19,1.09-2.89,.59-.59,1.35-.9,2.2-.9,1.24,0,2.17,.51,3.14,1.71l.56,.7,.71-.55,3.67-2.84,.7-.54-.52-.72c-1.94-2.69-4.71-4.05-8.22-4.05-2.81,0-5.4,1.04-7.29,2.93-1.87,1.87-2.9,4.41-2.9,7.15,0,5.67,4.39,10.07,9.99,10.07,3.69,0,6.4-1.39,8.54-4.37l.54-.74-.75-.53-3.67-2.61Zm19.08,1.17c2.07-1.23,3.19-3.24,3.19-5.75,0-2.01-.62-3.61-1.84-4.8-1.41-1.43-3.55-2.17-6.35-2.17h-9.27v.91s.02,17.63,.02,17.63v.91s.91,0,.91,0h4.88s.91-.01,.91-.01v-5.33s.73,0,.73,0l3.28,4.92,.27,.41h6.12s1.73-.01,1.73-.01l-.98-1.43-3.62-5.28Zm-5.25-4.27h-2.31v-2.4s2.28,0,2.28,0c1.73,0,1.73,.86,1.73,1.18,0,1.02-.93,1.23-1.7,1.23m27.58-7.57v-.91s-.92,0-.92,0h-4.96s-.91,0-.91,0v10.82c0,1.83-.75,2.72-2.32,2.72-.58,0-2.33,0-2.33-2.84v-9.79s-.01-.91-.01-.91h-.91s-4.96,0-4.96,0h-.91v10.8c.02,5.7,3.32,8.96,9.07,8.96,2.84,0,5.06-.74,6.64-2.2,1.68-1.57,2.54-3.89,2.54-6.89v-9.77Zm33.36-.94h-15.45s-.91,.01-.91,.01v2.54l-.38-.3c-2.13-1.7-4.68-2.53-7.79-2.53h-.03c-2.26,0-4.2,.62-5.59,1.81-1.38,1.18-2.14,2.86-2.14,4.75,0,4.44,3.63,5.63,7.36,6.46,1.84,.43,2.2,.69,2.27,.78v.07c0,.12-.39,.29-1.11,.29-1.83,0-3.56-.64-5.14-1.91l-.7-.56-.57,.69-2.71,3.25-.56,.68,.66,.59c2.27,2.03,5.42,3.14,8.86,3.14,4.88,0,8.03-2.62,8.03-6.65v-.05c0-4.22-3.51-5.55-7.3-6.37-1.71-.39-2.21-.63-2.32-.77,0,0,0-.02,0-.06v-.06s.23-.21,.85-.21c1.4,0,2.97,.56,4.41,1.57l.74,.52,.52-.74,2.44-3.45,.2-.29v2.92h5.29s.01,12.41,.01,12.41v.91s.91,0,.91,0h4.88s.91,0,.91,0v-13.33s4.36,0,4.36,0h.91v-6.1h-.92Zm23.59,1.83c-1.44-1.21-3.48-1.85-5.89-1.85h-7.58s-.91,.01-.91,.01v.91s.01,17.61,.01,17.61v.91h6.71v-5.03s1.5,0,1.5,0c5.15,0,8.48-2.86,8.48-7.27,0-2.22-.8-4.04-2.32-5.3m-6.27,6.91h-1.4v-2.83h1.38c1.9,0,1.9,1.02,1.9,1.4,0,1.29-1.31,1.43-1.88,1.43m16.16-8.77h-.91s-4.9,0-4.9,0h-.91v18.53s.01,.91,.01,.91h6.73v-18.53s-.01-.91-.01-.91Zm11.05,13.48l7.47-8.43,.23-.26v-4.81h-16.19s-.91,0-.91,0v5.05s0,.91,0,.91h7.41s-7.48,8.41-7.48,8.41l-.23,.26v3.89s0,.91,0,.91h16.49s.91-.01,.91-.01v-5.95h-7.72Zm46.81,4.65l-7.51-17.73-.24-.56h-5.31s-.6,0-.6,0l-.24,.56-7.37,17.48v-4.43h-.92s-6.79,.01-6.79,.01l7.47-8.42,.23-.26v-3.89s0-.91,0-.91h-16.19s-.91,.01-.91,.01v.91s0,4.13,0,4.13v.91h7.41s-7.47,8.42-7.47,8.42l-.23,.26v3.89s0,.91,0,.91h16.49s.91-.01,.91-.01h0s.73,0,.73,0h5.13s.62,0,.62,0l.23-.57,1.03-2.57h5.56s1.05,2.57,1.05,2.57l.23,.57h5.85s1.38,0,1.38,0l-.54-1.27Zm-11.38-7.49l.64-1.61,.63,1.61h-1.27Z"/><polygon class="cls-5" points="235.28 121.91 249.37 121.89 249.37 126.18 240.16 126.18 240.16 129.18 248.49 129.17 248.5 133.23 240.17 133.23 240.17 139.52 235.29 139.53 235.28 121.91"/><polygon class="cls-5" points="252.09 121.89 256.97 121.89 256.98 135.23 265.52 135.22 265.52 139.5 252.1 139.51 252.09 121.89"/><path class="cls-5" d="M274.19,121.75h4.71s7.51,17.73,7.51,17.73h-5.23s-1.28-3.14-1.28-3.14h-6.8s-1.26,3.16-1.26,3.16h-5.13s7.49-17.75,7.49-17.75Zm4.29,10.79l-1.97-5-1.98,5.01h3.95Z"/><polygon class="cls-5" points="284.68 121.86 290.14 121.86 294.15 133.02 298.15 121.86 303.5 121.85 296.37 139.6 291.84 139.61 284.68 121.86"/><path class="cls-5" d="M303.99,130.71v-.04c0-5.06,4.07-9.17,9.51-9.17,5.44,0,9.47,4.04,9.47,9.1v.05c0,5.07-4.07,9.17-9.51,9.17-5.44,.01-9.47-4.04-9.47-9.1m14,0v-.05c0-2.54-1.85-4.76-4.54-4.75-2.67,0-4.45,2.16-4.45,4.7v.06c0,2.53,1.84,4.75,4.51,4.75,2.7,0,4.48-2.16,4.48-4.71"/><path class="cls-5" d="M326,121.83h8.33c2.69,0,4.56,.7,5.74,1.9,1.03,1.01,1.56,2.36,1.57,4.11v.05c0,2.69-1.43,4.48-3.62,5.41l4.21,6.14h-5.64s-3.55-5.33-3.55-5.33h-2.14s0,5.34,0,5.34h-4.88v-17.61Zm8.1,8.46c1.66,0,2.62-.81,2.62-2.1v-.05c0-1.38-1.01-2.08-2.64-2.08h-3.2s0,4.23,0,4.23h3.22Z"/><polygon class="cls-5" points="344.6 121.82 358.77 121.81 358.77 125.96 349.44 125.97 349.44 128.64 357.9 128.63 357.9 132.49 349.44 132.49 349.45 135.28 358.91 135.28 358.91 139.42 344.61 139.44 344.6 121.82"/><path class="cls-5" d="M361.89,121.81h6.79c6.29,0,9.95,3.61,9.95,8.69v.05c0,5.09-3.69,8.86-10.04,8.87h-6.69s-.01-17.61-.01-17.61Zm6.88,13.29c2.92,0,4.85-1.61,4.85-4.46v-.05c0-2.82-1.94-4.45-4.86-4.45h-1.99s0,8.97,0,8.97h1.99Z"/><path class="cls-5" d="M388.53,130.64v-.05c0-5.14,3.95-9.16,9.28-9.16,3.6,0,5.91,1.49,7.47,3.67l-3.67,2.85c-1.01-1.26-2.17-2.07-3.85-2.07-2.46,0-4.2,2.09-4.2,4.66v.05c0,2.64,1.74,4.71,4.21,4.71,1.83,0,2.91-.86,3.97-2.15l3.68,2.62c-1.66,2.29-3.89,3.98-7.8,3.98-5.03,0-9.09-3.85-9.09-9.1"/><path class="cls-5" d="M408,121.77h8.33c2.7,0,4.56,.7,5.74,1.9,1.03,1.01,1.57,2.37,1.57,4.11v.05c0,2.69-1.43,4.48-3.62,5.41l4.21,6.14h-5.64s-3.55-5.32-3.55-5.32h-2.14v5.34s-4.88,0-4.88,0l-.02-17.62Zm8.11,8.45c1.67,0,2.62-.8,2.62-2.09v-.05c0-1.39-1-2.09-2.64-2.09h-3.19v4.23h3.22Z"/><path class="cls-5" d="M426.38,131.65v-9.89s4.95-.01,4.95-.01v9.79c.02,2.54,1.3,3.75,3.26,3.75s3.25-1.16,3.25-3.63v-9.92s4.95,0,4.95,0v9.76c.01,5.69-3.24,8.19-8.24,8.19-5.01,0-8.16-2.54-8.16-8.05"/><path class="cls-5" d="M444.86,136.74l2.72-3.25c1.74,1.38,3.68,2.11,5.71,2.11,1.31,0,2.02-.46,2.02-1.2v-.05c0-.73-.58-1.13-2.97-1.69-3.76-.84-6.65-1.91-6.65-5.53v-.05c0-3.27,2.59-5.64,6.81-5.64,3,0,5.34,.8,7.25,2.34l-2.44,3.44c-1.61-1.13-3.37-1.72-4.93-1.72-1.18,0-1.76,.5-1.76,1.13v.05c0,.8,.61,1.15,3.05,1.7,4.05,.88,6.57,2.19,6.57,5.48v.05c0,3.6-2.84,5.74-7.12,5.74-3.12,0-6.09-.97-8.26-2.91"/><polygon class="cls-5" points="466.9 126 461.61 126 461.61 121.72 477.07 121.71 477.07 125.99 471.78 125.99 471.79 139.33 466.91 139.34 466.9 126"/><path class="cls-5" d="M487.18,121.7h7.55c4.46,0,7.33,2.28,7.33,6.18v.04c0,4.15-3.19,6.35-7.57,6.35h-2.42v5.04s-4.88,0-4.88,0v-17.61Zm7.19,8.75c1.74,0,2.79-.91,2.79-2.3v-.05c0-1.51-1.06-2.31-2.82-2.31h-2.29v4.66h2.32Z"/><polygon class="cls-5" points="504.72 121.69 509.63 121.68 509.65 139.31 504.74 139.31 504.72 121.69"/><polygon class="cls-5" points="512.81 135.75 521.64 125.8 513.11 125.81 513.11 121.68 528.39 121.67 528.39 125.21 519.56 135.17 528.39 135.16 528.4 139.29 512.81 139.31 512.81 135.75"/><polygon class="cls-5" points="530.63 135.74 539.46 125.79 530.92 125.8 530.92 121.67 546.2 121.66 546.2 125.2 537.38 135.16 546.21 135.15 546.22 139.27 530.64 139.29 530.63 135.74"/><path class="cls-5" d="M555.34,121.52h4.71s7.51,17.73,7.51,17.73h-5.24s-1.28-3.14-1.28-3.14h-6.8s-1.25,3.16-1.25,3.16h-5.14l7.49-17.75Zm4.29,10.8l-1.97-5.01-1.98,5.01h3.95Z"/><path class="cls-5" d="M478.13,133.58c2.17,0,3.9,1.71,3.9,3.82s-1.73,3.83-3.92,3.83-3.94-1.7-3.94-3.83,1.75-3.82,3.94-3.82h.02Zm-.07,.95c-1.55,0-2.72,1.27-2.72,2.88s1.17,2.86,2.77,2.86c1.59,.02,2.77-1.28,2.77-2.88s-1.17-2.86-2.79-2.86h-.02Zm-.44,4.68h-1.08v-3.52c.24-.04,.82-.13,1.55-.13,.8,0,1.15,.11,1.42,.29,.22,.16,.37,.42,.37,.77s-.33,.67-.82,.8v.04c.4,.11,.62,.4,.73,.91,.11,.51,.17,.71,.24,.84h-1.22c-.11-.13-.18-.44-.24-.75-.07-.35-.25-.53-.6-.53h-.36v1.28Zm.04-2.02h.31c.4,0,.66-.18,.66-.42,0-.29-.24-.44-.62-.44-.14,0-.27,.02-.36,.02v.84Z"/><path class="cls-6" d="M81.39,155.23c-37.27,0-67.49-28.25-67.49-63.11S44.11,29,81.39,29s67.49,28.26,67.49,63.11-30.21,63.11-67.49,63.11"/></g><g class="cls-19"><rect class="cls-34" x="24.85" y="36.21" width="113.06" height="111.8"/></g><g><path class="cls-8" d="M66.38,131.7c.15-.86-.78-1.34-.61-2.45-9.89-3.42-18.72,.53-26.58,11.94,4.53,3.34,9.19,6.02,14.1,8.02l23.51,8.36c8.08,2.85,31.87-5.06,32.72-5.47,1.16-.52-.52-6.59,1.51-8.14-2.9-1.72-13.75-15.57-27.09-14.73-.54,1.07-1.38,3.54-1.6,4.5-6.25,5.66-14.32,.79-15.95-2.04"/><path d="M132.87,41.17c-13.18-13.03-31.39-21.09-51.49-21.09s-38.32,8.06-51.49,21.09c-13.18,13.03-21.34,31.05-21.34,50.93s8.16,37.92,21.34,50.95c13.18,13.03,31.39,21.09,51.49,21.09s38.31-8.06,51.49-21.09c13.18-13.03,21.34-31.05,21.34-50.95,0-19.89-8.16-37.91-21.34-50.93m-51.49,113.34c-17.43,0-33.23-7-44.67-18.3-11.44-11.31-18.52-26.9-18.52-44.1,0-17.2,7.08-32.79,18.52-44.09,11.45-11.3,27.24-18.3,44.67-18.3s33.22,7,44.67,18.3c11.44,11.31,18.52,26.89,18.52,44.09,0,17.2-7.08,32.79-18.52,44.1-11.45,11.3-27.24,18.3-44.67,18.3"/></g><g class="cls-18"><rect class="cls-25" x="34.32" y="5.38" width="101.2" height="136.7" transform="translate(-7.19 9.2) rotate(-5.95)"/></g><polygon class="cls-6" points="112.88 58.24 113.92 56.08 113.67 52.18 112.13 46.51 109.71 42.99 107.89 42.08 104.85 46.17 104.06 50.66 104.5 54.86 108.54 52.87 111.31 58.24 112.88 58.24"/><polyline class="cls-6" points="98.74 66.01 98.94 58.9 95.53 50.29 91.54 46.77 89.58 47.6 87.27 51.15 86.3 58.49 88.59 63.76 90.54 61.35 95.23 62.6 97.76 67.21 99.33 65.63"/><g class="cls-22"><rect class="cls-24" x="17.21" y="6.31" width="110.47" height="115.83" transform="translate(-6.27 7.86) rotate(-5.95)"/></g><g><path d="M123.21,70.75c1.8-5.18-3.91-11.11-10.54-8.56-.34,.13-.67,.26-1,.37,.02,0,.03-.02,.04-.04,4.83-5.85,2.4-15.32-.73-19.17-.45-1.93,.28-3.09,.52-3.8,.04,.01,.08,.02,.13,.03,2.76-.71,1.07-4.17-.15-4.44-.44-.09-.85-.14-1.25-.18-1.16-2.11-1.47-6.03-1.61-7.4,7.54,.23,13.21,1.99,15.1,3.68-.84-13.61-19.26-30.55-48.94-18.66-23.37,9.36-37.95,25.34-38.72,25.81-.31-.3-4.63-4.6-4.63-8.7l-4.91,6.28-5.38-3.32c-1.68,9.55,4.54,22.15,4.62,22.18-4.57,22.52-.08,38.47,7.64,52.14,4.51,4.98,14.92,12.29,29.56,12.81,.02,.02,.04,.03,.05,.05,.43,1.91,1.08,4.3,1.72,6.79-9.75-1.46-19.22,3.16-27.86,12.59,.45,.43,.89,.79,1.37,1.15,.72,.62,1.5,1.18,2.26,1.79,7.44-10.79,15.75-14.92,25-12.42,.2,.86,.4,1.71,.57,2.55,2.86,7.07,14.26,11.75,20.04,.14,1.18-.34,7.46,.43,14.26,4.32,4.56,2.69,7.44,10.44,8.95,14.85,1.56,4.54,5.33-2.38,5.33-2.38,0,0-4.63-10.84-13.24-15.5-6.5-3.51-11.4-4.56-14.14-4.99,.36-.87,.79-1.51,1.65-2.66,13.62,4.18,20.01-3.18,21.47-5.87,2.95-5.99,6.56-16.11,11.07-20.67,4.89-4.94,8.67-12,9.38-17.19,.67-4.9-1.97-11.86-7.61-11.59m-10.26-13.71c-.48-7.79-6.03-9.2-7.88-4.28-.09-2.87,.74-9.04,2.89-9.76,1.93-.5,5.91,6.9,4.99,14.04m-81.89-4.07c.1-.22-6.92-5.08-7.45-14.7,1.65,2.18,3.24,4.15,4.51,5.04,.1-3.2,1.84-6.32,1.89-6.97,.97,3.26,3.13,6.79,5.41,8.09,.42-.66,11.55-15.34,35.03-25.52,33.91-12.98,46.62-1.04,49.75,6.82-8.22-2.34-26.64-1.75-43.72,7.1-15.35,7.96-25.88,23.86-28.41,27.7,3.35-2.46,8.86-4.57,14.51-6.41-1.36,11.24,1.93,21.1,3.43,25.53-1.37-4.06-6.18-11.94-16.12-9.65-1.53,.31-8.13,3.88-10.18,12.56-2.3,9.96,2.08,17.99,4.7,21.38,5.29,6.93,11.67,5.65,13.36,6.13l3.02,5.54c-34.03-3.38-37.2-37.2-29.73-62.64m96.83,29.35c-.96,4.4-4.77,9.71-11.4,18.39-3.05,6.53-5.05,10.67-5.96,12.47-.91,1.8-1.48,2.87-1.69,3.22-4.5,7-13.17,9.34-26.29,5.68,0,0-.02,1.18,3.27,2.89-1.96,2.7-2.83,4.9-3.2,8.27-4.34,4.39-11.98,2.83-13.72-2.11-.12-3.11-.25-3.82-.37-6.96,.15-1.94,1.32-1.73,2.84-2.26,.83-.29,2.47-1.71,2.47-1.71-9.32-2.59-12.84-8.12-14.55-14.45-3.06,2.37-11.85,.3-16.35-12.88-2.59-8.06,2.64-20.47,9.54-20.2,8.56,.58,11.64,7.92,12.98,12.24,1.73-.03,2.86,.25,4.59-1.27-2.95-7.28-3.97-14.74-4.73-21.23-.73-5.97,1.15-11.81,3.3-16.17-2.03,.57-4.12,1.39-6.25,2.53,13.25-16.2,30.54-20.98,43.5-21.22,.32,1.71,1.27,5.79,2.05,7.5-5.05,.88-6.21,6.34-6.25,7.21,1.13-.68,3.26-3.05,7.14-3.05,.08,.51,0,1.17-.01,2.5-.56-.15-1.09-.04-1.56,.37-7.11,5.79-4.06,17.65-1.55,20.53,.64,.71,1.3,1.11,1.94,1.29-1.25,.56-1.77,.92-2.72,1.58-1.36,.79-.57,2.5,.43,3.3,0,0,3.33-2.27,5.94-3.45,2.93-1.33,6.41-1.93,7.99,1.84,1.07,2.56-.86,5.34-2.8,6.59-3.88,2.5-6.5,4.04-6.5,4.04,0,0,.14,1.24,2.88,1.08l2.08-1.1,4.01,6.11c-14.33,12.51-26.87,13.92-38.4,9.68,.09-1.8,2.41-3.47,1.78-3.65-.59-.18-1.41,.1-2.42,.9-1.05,.84-1.87,1.98-2.49,3.39-.66,1.44-.89,2.77-.76,4.01,.38,1.47,3.07-1.15,3.25-2.29,4.13,2.64,6.57,17.47,18.55,18.38,2.99,.04,6.55-2.06,8.6-6.97,1.9-4.56,7.3-18.15,14.73-23.72l-4.42-7.4,3.6-2.15c.08-.04,.2-.06,.28-.07,2.5-.48,4.29,.02,5.59,1.93,1.06,1.22,1.61,4.02,1.09,6.39m-37.74-9.7c2.24,1.14,7.65,1.08,8.65-.01,4.03-9.19-2.11-29.74-9.66-25.44-6.6,5.58-3.77,20.98,1,25.45m.28-24.43c3.4-.17,7.47,6.72,7.85,16.45-1.58-8.85-7.95-9.17-9.96-4.24-1.03-4.61-.51-11.28,2.11-12.21m-31.88,15l.41-4.38s-7.86,1.61-15.08,7.28c9.57-3.55,14.67-2.9,14.67-2.9m-6.74,17.45c-2.99,2.26-2.89,10.23-1.53,15.99,1.7-1.42,.22-5.89,2.72-6.82,.14,.4,2.76,3.96,3.4,3.43-1.18-3.56-1.12-11.48-4.59-12.6m5.02,59.88c-1.7,1.33-5.19,8.68-4.08,10.29,1.11,1.61,6.54,7.7,10.81,4.42-5.52-3.68-6.95-10.81-6.73-14.72"/><path class="cls-35" d="M87.18,103.16s4.41-.48,7.2,.55c2.07,.76,5.22,2.86,5.93,4.84,.44-2.26-3.72-4.69-3.72-4.69,0,0,6.72,.34,7.35,2.78,.52,2.01-2.58,5.51-7.14,4.26-7.43-2.32-9.62-7.73-9.62-7.73"/><path class="cls-5" d="M107.77,98.28l1.75-4.01c-5.14,2.85-13.73,3.84-22.01,2.89l2.39,1.72c6.96,1.87,13.23,1.54,17.88-.6"/><path class="cls-6" d="M88.3,16.58c10.01-1.11,16.47-1.09,25.24,4.5-15.73-1.92-28.97,2.35-35.11,7.34-3.99-.4-7.49-.1-14.89,2.57,6.69-6.33,17.31-8.74,17.31-8.74,0,0-1.86-1.57-11.05,.27,1.09-1.05,8.81-4.87,18.51-5.95"/><path class="cls-6" d="M41.4,106.3c-1.45-.32-18.47-17.7-8.57-44.44-.87,3.84-.47,10.6-.47,10.6l4.22-.29s-6.55,17.21,4.82,34.13"/><path d="M92.91,39.63c-.84-.67-1.85-1.01-3.03-1.01-2.69,0-5.89,1.87-7.97,4.67-2.17,3.25-.74,6.59-.68,6.73l.38,.86,.33-.88s1.49-3.81,5.39-4.56c3.5-.57,5.87-1.92,6.33-3.61,.22-.82-.05-1.62-.74-2.19"/><path d="M95.09,65.02c.25,2.65-.83,4.92-2.42,5.07-1.58,.15-3.08-1.87-3.33-4.52-.25-2.65,.83-4.92,2.42-5.07,1.58-.15,3.08,1.88,3.33,4.52"/><path d="M110.23,57.42c.24,2.58-.71,4.79-2.13,4.92-1.42,.14-2.77-1.85-3.02-4.43-.24-2.58,.71-4.78,2.13-4.92,1.43-.14,2.78,1.85,3.02,4.43"/><path class="cls-5" d="M90.91,64c-.14,.58-.11,1.31,.02,2.1,.13,.8,.36,1.46,.61,2.01,.3,.54,.57,.79,.85,.72,.28-.03,.45-.37,.55-.95,.1-.58,.11-1.31-.06-2.11-.12-.8-.31-1.47-.61-2.01-.3-.53-.57-.75-.81-.73-.28,.07-.45,.37-.55,.95"/><path class="cls-5" d="M106.9,56.77c-.07,.45-.09,1.02,0,1.66,.11,.64,.29,1.18,.54,1.64,.21,.43,.43,.65,.67,.58,.2-.02,.34-.27,.45-.77,.07-.45,.1-1.03-.05-1.69-.11-.64-.25-1.2-.5-1.61-.24-.42-.43-.65-.66-.58-.24,.02-.38,.28-.45,.78"/><path d="M95.48,66.17c.25,2.65-.83,4.92-2.42,5.07-1.58,.15-3.08-1.87-3.33-4.52-.25-2.65,.83-4.92,2.42-5.07,1.58-.15,3.08,1.88,3.33,4.52"/><path d="M110.62,58.57c.24,2.58-.71,4.79-2.13,4.92-1.42,.14-2.77-1.85-3.02-4.43-.24-2.58,.71-4.78,2.13-4.92,1.43-.14,2.78,1.85,3.02,4.43"/><path class="cls-5" d="M91.29,65.15c-.14,.58-.11,1.31,.02,2.1,.13,.8,.36,1.46,.61,2.01,.3,.54,.57,.79,.85,.72,.28-.03,.45-.37,.55-.95,.1-.58,.11-1.31-.06-2.11-.12-.8-.31-1.47-.61-2.01-.3-.53-.57-.75-.81-.73-.28,.07-.45,.37-.55,.95"/><path class="cls-5" d="M107.29,57.92c-.07,.45-.09,1.02,0,1.66,.11,.64,.29,1.18,.54,1.64,.21,.43,.43,.65,.67,.58,.2-.02,.34-.27,.45-.77,.07-.45,.1-1.03-.05-1.69-.11-.64-.25-1.2-.5-1.61-.24-.42-.43-.65-.66-.58-.24,.02-.38,.28-.45,.78"/></g></g></g></svg>