<?xml version="1.0" encoding="utf-8"?>
<!-- Generator: Adobe Illustrator 24.3.0, SVG Export Plug-In . SVG Version: 6.00 Build 0)  -->
<svg version="1.1" xmlns="http://www.w3.org/2000/svg" xmlns:xlink="http://www.w3.org/1999/xlink" x="0px" y="0px"
	 viewBox="0 0 1080 1296" style="enable-background:new 0 0 1080 1296;" xml:space="preserve">
<style type="text/css">
	.st0{fill:#F0B06A;}
	.st1{fill:#5B7B2B;}
	.st2{fill:#DD6E0F;}
	.st3{fill:#F18E14;}
	.st4{fill:#3C4C1E;}
	.st5{fill:#94B145;}
	.st6{fill:#F8C78E;}
</style>
<g id="Layer_3">
	<g>
		<path class="st0" d="M611.67,831.59l-13.41-9.18c0.21,2.74,0.61,6.91,1.35,13.19l0.02,0.16l13.12,10.36
			c0-3.68-0.43-9.36-1.05-14.28L611.67,831.59z"/>
		<path class="st0" d="M343.78,580.63l-16.06-27.02c-5.34,33.07-12.25,77.55-12.57,84.71l25.58-11.46
			C340.91,618.33,342.98,591.01,343.78,580.63z"/>
		<path class="st0" d="M560.92,846.96c-12.35,1.78-24.6,3.23-30.38,3.88c0.59,2.98,1.23,6.46,1.9,10.55
			c25.97-3.93,61.04-9.32,75.17-11.67l-12.19-9.62C591.43,841.66,582.46,843.86,560.92,846.96z"/>
		<path d="M739.66,741.49c9.62-17.38,15.08-33,17.61-41.3l-37.43,18.16c2.59,8.24,5.22,20.11,0.28,23.57
			c-4.37,3.05-49.95,21.5-58.42,18.1c-7.75-3.11-11.11-15.82-11.54-17.57l-0.12-0.41l-49.64,9.61c0.29,2.39,0.67,5.99,0.87,9.74
			c0.54,10.16-0.56,15.22-3.66,16.93c-0.59,0.33-1.65,0.68-3.03,1.04c-0.3,0.66-0.61,1.32-0.94,1.97l0.03-1.73
			c-12.32,2.98-46.19,6.67-54.12,5.51l-11.38-1.66l-2.62-18.79c-10.27-0.16-47.56-1.03-64.16-5.49v20.81l-22.57-1.33
			c-0.13-0.02-12.75-1.99-25.22-4.58c-9.93-2.07-16.28-3.77-20.35-5.28l0.25,2.21c-1.59-0.65-2.61-1.92-3.25-3.47
			c-3.62-1.78-4.13-3.31-4.15-4.93c-0.04-4.07-0.02-12.35-0.01-16.01l-35.46-19c1.22,7.74,4.27,20.82,11.88,35.31
			c10.65,20.25,32.61,47.31,77.08,63.63l5.95-14.81l60.63,4.62l16.67,16.6c0.43,0.05,0.73,0.11,0.9,0.16
			c1.18,0.37,2.92,0.94,5.52,11.87c13.57-1.44,55.99-6.89,64.16-10.5c-0.76-6.6-1.73-16.12-1.29-18.09l0.4-1.82l1.81-0.45
			c14.31-3.53,48.11-11.6,52.97-10.45c4.19,1,14.88,6.98,19.06,9.37c0.08,0.04,0.15,0.08,0.23,0.12
			C703.78,795.78,726.83,764.67,739.66,741.49z"/>
		<path class="st0" d="M453.98,818.38l9.48,12.35c15.44,0.38,37.51,0.99,50.27,1.6l-10.22-10.17L453.98,818.38z"/>
		<path class="st0" d="M379.08,578.02c-24.63-17.06-40.68-27.01-48.04-30.58l17.55,29.53L379.08,578.02z"/>
		<path class="st0" d="M437.36,832.1c-46.29-17.03-69.18-45.42-80.3-66.69c-9.62-18.4-12.24-34.38-12.95-41.32l-14.41-7.72
			c2.39,18.38,12.81,77.27,49.88,101.02c33.59,21.52,57.95,33.18,69.71,37.89l-12.67-21.33L437.36,832.1z"/>
		<path class="st0" d="M445.27,828.52c0.1,0.03,0.2,0.07,0.3,0.1l-1.83,5.55l12.58,21.19c1.01-4.61,2.02-13.08,2.57-20.74
			l-10.55-13.74L445.27,828.52z"/>
		<path d="M346.69,627.39c8.97,5.36,76,28.62,133.13,26.36c-12.31-10.96-42.11-33.87-75.13-57.63c-5.85-4.21-11.36-8.13-16.56-11.79
			l-38.51-1.32C348.39,598.98,346.76,621.88,346.69,627.39z"/>
		<path class="st0" d="M755.23,644.03c-4.29-0.88-11.17-2.56-18.67-5.5c-9.18,3.18-70.98,23.66-118.5,15.11
			c-10.97,2.74-17.64,4.59-21.67,5.78C702.61,682.29,747.96,650.01,755.23,644.03z"/>
		<path class="st1" d="M442.17,435.28c7.53,2.89,14.65,6.41,20.93,9.6c8.81,4.48,16.53,8.84,23.5,13.26
			c9.36-5.31,40.6-19.13,97.22-7.71c9.54-6.18,25.06-9.34,40.09-10.9c-4.14-2.61-7.89-5.58-11.71-8.62
			c-6.48-5.16-13.18-10.49-22.89-15.07c-11.7-5.52-17.49-14.74-19.68-26c-1.33-3.71-2.07-7.74-2.75-11.29
			c-2.79-14.61-3.79-29.55-2.97-44.4c0.59-10.66,2.17-21.47,6.8-31.1c-3.71,15.13-3.24,31.26,1.34,46.14
			c0.01,0.02,0.02,0.05,0.02,0.07c1.72-8.19,3.85-16.48,5.93-24.53c5.69-22.08,22.81-39.91,39.13-50.6
			c6.57-6.52,16.31-10,25.39-12.93c6.46-2.08,13.54-4.16,19.88-1.74c7.3,2.78,11.3,10.72,12.95,18.36c-2-5.89-7.68-9.99-13.72-11.49
			c-2.3-0.57-4.65-0.82-7.01-0.85c0.16,0.12,0.32,0.23,0.46,0.35c7.25,6.04,12.26,18.64,12.48,31.35c0.1,5.82-0.82,11.27-2.66,16.14
			c10.72-5.27,18.06-13.22,21.9-23.75c8.04-22.07-1.48-49.87-10.8-62.57c-11.12-15.14-25.26-15.07-41.67-15.01
			c-4.65,0.02-9.41,0.04-14.24-0.29c-13.02,3.42-27.05,4.13-38.33,11.37c7.03-6.42,15.62-11.03,24.79-13.58
			c-4.4-1.28-7.42-2.86-9.85-4.13c-4.79-2.51-6.07-3.18-17.81,5.01c-21.3,14.85-47,56.91-59.54,88.98
			c-6.27,16.03-5.11,37.04-4.08,55.57c0.56,10.17,1.08,19.57,0.32,27.4c0.48,8.95,0.16,17.74-3.05,26.07
			c-3.3,8.56-9.59,15.93-17.53,20.53c4.94-8.06,8.34-16.95,10.6-26.15C491.7,414.18,460.28,427.89,442.17,435.28z"/>
		<path class="st0" d="M758.7,638.58l0.19-0.3l-7.38-85.51c-0.54-0.51-1.46-1.3-2.76-2.06c-3.11,1.52-12.01,7.35-24.52,15.9
			c3.33,12.98,13.95,54.96,15.27,66.63C747.8,636.4,755.32,637.97,758.7,638.58z"/>
		<path class="st2" d="M397.54,431.41l4.94,0c0.42,0,1.09,0,1.3-0.05c0.03-0.01,0.16-0.07,0.48-0.23l0.18-0.09
			c0.2-0.1,0.4-0.21,0.61-0.31c6.57-3.26,14.89-2.15,22.19-0.26c8.81-3.39,19.16-7.64,29.36-12.19
			c-25.57-0.75-70.6,0.03-101.63,12.23C369.19,431.43,383.52,431.42,397.54,431.41z"/>
		<path class="st0" d="M614.51,648v-3.88c-3.09,2.22-6.15,4.42-9.17,6.59c3.68-0.97,7.39-1.92,10.55-2.71H614.51z"/>
		<path d="M733.49,633.23c-1.12-8.8-8.86-40.75-14.54-63.01c-25.8,17.76-63.79,44.73-98.44,69.59v8.16
			C664.26,655.24,721.84,637.13,733.49,633.23z"/>
		<path class="st0" d="M356.38,637.92c-7.22-2.64-11.04-4.37-13.1-5.63l-22.65,10.15c17.24,10.65,70.25,33.5,142.59,17.28
			c-26.56-1.01-52.89-6.32-72.17-11.24C378.66,645.32,366.34,641.57,356.38,637.92z"/>
		<path class="st0" d="M764.53,696.67c-1.38,5.3-6.91,24.72-19.53,47.56c-12.94,23.43-35.98,54.67-73,72.96
			c2.49,2.45,4.29,5.02,4.9,5.94l0.16,0.24l2.35,5.58c10.88-6.39,49.51-30.25,67.64-56.52c15.41-22.33,23.44-57.71,26.68-75.41
			c-0.8-1.26-1.54-2.54-2.01-3.83L764.53,696.67z"/>
		<path class="st0" d="M602.77,818.24l13.63,9.33c7.76-3.03,27.66-10.74,38.3-14.09c-3.75-1.96-7.2-3.6-8.78-3.98
			C643.06,809.15,622.86,813.42,602.77,818.24z"/>
		<path class="st3" d="M920.49,536.6c-21.52-48.71-94.77-113.07-165.09-107.26c-38.86,3.21-61.39,8.56-73.62,12.59
			c87.19,14.62,143.05,83.04,156.17,156.06c-27.52-113.33-125.5-144.21-165.99-152.22c-2.01,0.96-2.87,1.55-2.9,1.58l-1.45,1.1
			l-1.76-0.13c-3.46-0.17-8.25-0.27-13.77-0.24c-0.07,0-0.14,0.02-0.21,0.02c-0.08,0-0.17,0-0.25-0.01c-0.05,0-0.1-0.01-0.15-0.01
			c-19.97,0.18-49.25,2.33-62.1,10.66c14.93,10.34,63.1,46.93,78.8,98.51c-23.53-56.53-64.21-84.95-87.34-97.19
			c-41.28-8.13-67.94-1.98-81.24,3.13c-15.55,13.07-55.36,51.11-70.75,109.17c13.9-62.09,43.29-94.76,53.84-104.84
			c-7.07-4.57-14.96-9.06-24.11-13.72c-7.63-3.88-16.52-8.26-25.62-11.19l-0.44-0.14c-6.5-2.09-17.37-5.59-23.03-2.79l-0.65,0.33
			c-0.62,0.32-1.32,0.65-2.14,0.9c-1.62,0.49-3.13,0.49-4.23,0.48l-4.91,0c-0.45,0-0.9,0-1.35,0
			c-31.64,19.51-125.22,90.16-128.92,245.17c-11.82-94.54,44.5-196.8,101.2-245.44c-12.06-0.35-24.18-1.15-36.17-2.95
			c-33.28-4.99-107.9,18.39-153.82,67.79c-19.85,21.36-36.47,56.94-46.8,100.2c-9.4,39.39-11.2,74.22-8.8,91.25
			c5.5,39.13,31.12,135.3,75.16,182.78c51.09,55.07,90.76,83.24,117.91,83.74c19.49,0.35,33.43-4.46,40.94-7.97
			c-12.66-17.1-60.27-84.66-65.92-141.11c9.18,57.17,50.82,109.77,74.66,135.9l0.85-0.61l3,2.55c0.39,0.33,39.8,33.61,70.5,23.92
			c23.78-7.51,29.27-13.2,30.28-14.54v-2.23c-10.1-7.37-32.74-29.1-41.81-80.4c8.06,30.82,42.68,69.03,56.19,83.07
			c11.39,5.94,35.44,16.68,57.82,15.05c21.87-1.59,38.57-8.53,46.51-12.47c8.85-7.59,32.38-28.77,44.85-49.51
			c1.25-2.28,2.52-4.64,3.82-7.11c-1.1,2.35-2.39,4.73-3.82,7.11c-14.8,26.98-26.06,40.45-32.1,46.54
			c16.28,1.79,76.04,6.08,110.39-21.97l2.53-2.07l2.39,1.22c27.84-17.02,117.19-81.58,132.16-216.32
			c-6.84,103.41-52.59,181.78-122.72,221.29c22.71,11.79,52.29,22.32,118.32-33.12c79.78-66.99,101.06-114.8,110.87-174.76
			C965.6,675.85,945.15,592.41,920.49,536.6z M585.09,657.92c0.05-0.04,0.81-0.59,2.18-1.57l0,0c0,0,0.01,0,0.01-0.01
			c8.85-6.39,43.26-31.19,77.61-55.55c23.3-16.52,42.02-29.62,55.64-38.92c27.07-18.49,27.84-18.12,29.88-17.09
			c4.03,2.01,6.11,4.53,6.33,4.81l0.57,0.71l7.72,89.46l-2.25,3.59l-1.94,3.7l-0.34,0.33c-0.49,0.48-12.32,11.85-39.91,19.47
			c-12.96,3.58-30.86,6.64-54.15,6.64c-21.88,0-48.51-2.7-80.29-10.22l-6.38-1.51L585.09,657.92z M309.25,640.12
			c-0.91-4.12,9.62-69.61,14.19-97.58l0.27-1.64l1.53-0.64c1.87-0.79,4.43-1.86,29.29,14.07c13.56,8.69,31.31,20.88,51.34,35.25
			c34.2,24.54,74.98,55.57,83.21,64.77l3.07,3.43l-4.38,1.42c-27.34,8.88-52.33,12.12-74.21,12.12c-50.86,0-85.01-17.49-93.43-22.3
			C309.93,643.2,309.42,640.88,309.25,640.12z M781.44,686.96c-0.3,2.32-7.52,57.09-29.46,88.88
			c-21.93,31.77-70.51,58.89-72.57,60.03l-2.92,1.62l-4.74-11.25c-1.68-2.45-4.4-5.5-6.9-7.17c-0.38-0.22-0.77-0.45-1.19-0.69
			c-0.81-0.39-1.57-0.6-2.24-0.53c-4.06,0.48-27.94,9.46-43.49,15.56c2.2,19.23-0.44,20.21-2.21,20.87
			c-2.42,0.9-60.47,9.73-85.31,13.49l-2.94,0.45l-0.47-2.94c-1.69-10.67-4.27-23.19-5.75-26.52c-5.98-0.57-36.01-1.48-56.49-1.99
			c-1.96,26.26-5.13,26.71-7.26,27.01c-4.77,0.69-36.82-12.92-81.15-41.33c-38.66-24.78-49.67-82.92-52.42-103.72
			c-2.82-7.95-6.39-15.57-11.21-22.51c3.51,3.3,7.02,6.59,10.53,9.89l26.49,14.19l0.12,0c0,0.01,0,0.03,0,0.07l40.19,21.54
			c0.41-7.47,1-14.93,2.02-22.35c2.15,14.11,2.46,28.5,0.95,42.69c5.84,2.91,27.58,7.51,46.61,10.47l15.79,0.92v-23.13l4.17,1.77
			c13.95,5.92,68.08,6.42,68.63,6.43l2.59,0.02l0.78,5.55c0.08-9.76-0.81-19.53-2.7-29.1c3.76,11.01,6.13,22.49,7.03,34.09
			c0.28,3.61,0.79,7.86,3.97,9.6l-0.12,0.21l0.69,0.1c8.72,1.27,46.1-3.55,53.36-5.76l0.01-0.6c0.93-7.24,0.22-14.69-2.07-21.62
			c-1.34-4.07-3.22-7.99-4.01-12.2c-1.34-7.22,0.64-14.6,2.61-21.68c-0.24,6.91,1.03,13.88,3.7,20.26c1.19,2.86,2.66,5.61,3.8,8.48
			l56.48-10.93l1.68,5.88c1.07,4.4,4.18,11.96,7.96,13.48c5.71,1.77,47.64-14.05,52.65-17.39c0.32-0.52,0.42-1.63,0.34-3.14
			c-2.31-6.35-3.86-13.18-5.79-19.6c-1.64-5.45-3.28-10.94-3.77-16.61c2.5,5.43,5.56,10.71,7.87,16.21l57.17-27.74
			c2.1-4.85,6.15-9.68,7.41-14.92c0.42,3.68,0.57,7.38,0.52,11.08l1.81-0.88L781.44,686.96z"/>
		<path class="st2" d="M615.32,420.63c1.06,0.83,2.09,1.65,3.1,2.45c9.95,7.91,17.82,14.17,33.46,15c5.96-0.04,10.57,0.09,12.9,0.17
			c4.2-2.42,16.9-8.42,46.1-13.5C680.6,411.94,634.12,417.57,615.32,420.63z"/>
	</g>
</g>
<g id="Layer_4">
	<g>
		<path class="st2" d="M211.45,474.53l0.07,1.39c0.95-0.68,1.91-1.36,2.86-2.02C213.39,474.11,212.41,474.32,211.45,474.53z"/>
		<path class="st2" d="M363.92,465.6c1.11-4.19,3.09-8,5.69-11.38c-2.89,1.23-5.71,2.62-8.44,4.19L363.92,465.6z"/>
		<path class="st2" d="M473.83,454.63c-10.97-4.69-22.24-8.7-33.71-11.99c-14.26-4.1-29.33-7.1-43.88-4.22
			c-10.3,2.04-20.31,7.63-26.62,15.81c14.23-6.07,30.21-8.03,45.46-5.4c11.43,1.97,23.86,8,26.57,19.29
			c1.07,4.44,0.45,9.09-0.18,13.62c-4.44,32.06-8.88,64.12-13.32,96.19c8.69-30.27,18.23-61.99,40.77-83.99
			c4.83-4.71,10.27-9,13.7-14.81c3.43-5.81,4.32-13.82-0.05-18.97C480.31,457.5,477.03,455.99,473.83,454.63z"/>
		<path class="st2" d="M664.18,541.14c-7.91-15.6-14.18-32.04-18.64-48.95c-0.92-3.5-1.77-7.15-1.06-10.7
			c1.97-9.81,13.97-13.43,23.93-14.33c32.56-2.91,65.89,3.22,95.28,17.54c-0.33-0.29-0.67-0.58-1-0.87
			c16.4,10.1,31.07,23,43.27,37.91c18.46,27.39,36.04,65.59,40.89,115.34c7.44,76.36,2.72,113.38-1.34,129.72
			c8.72-26.44,27.79-94.86,16.16-158.16c-13.48-73.31-49.99-127.49-34.63-152.74c15,2.44,29.63,7.2,43.18,14.1
			c-24.56-26.63-59.6-42.72-95.63-46.56c-35.4-3.77-71.56,3.88-103.61,19.41c-22.14-2.92-44.8-1.68-66.38,4.14
			c-1.58,0.43-3.18,0.92-4.78,1.47c-2.78,1.49-5.55,2.98-8.33,4.46c-1.02,0.55-2.06,1.1-3.16,1.42c-3.33,2.57-5.9,5.81-7.02,9.92
			l8.27-3.89C617.3,484.58,645.66,509.62,664.18,541.14z"/>
		<path class="st2" d="M664.18,541.14c1.86,3.67,3.82,7.3,5.86,10.87C668.22,548.31,666.26,544.69,664.18,541.14z"/>
		<path class="st2" d="M436.34,912.6c1.65,15.64-13.88,29.07-29.56,30.19c-15.69,1.12-30.6-6.85-43.21-16.25
			c-29.02-21.65-51.13-52.41-62.4-86.81c0.18,1.31,0.4,2.62,0.63,3.92c-4.31-11.72-8.42-23.52-11.82-35.54
			c-5.4-19.08-9-38.61-12.31-58.16c-6.15-36.37-11.31-73.24-8.71-110.04C274.5,561.53,317.29,486.6,381.99,442
			c-28.21-10.73-59.99-9.16-88.96-0.71c-4.5,1.31-8.95,2.79-13.35,4.39c-9.65,5.5-24.51,14.37-40.99,26.22
			c7.6,0.81,14.46,3.52,19.22,9.55c5.82,7.37,6.36,17.55,5.77,26.92c-1.07,17.22-5.03,34.11-7.83,51.14
			c-8.91,54.16-6.06,109.5-2.6,164.29c1.65,26.24,3.47,52.66,10.2,78.07c8.16,30.82,23.34,59.42,31.59,90.21
			c3.28,12.25,5.39,25.56,0.85,37.4c-4.54,11.84-17.82,21.13-29.88,17.2c13.54,13.04,32.36,19.49,51.06,21.39
			c7.29,0.74,14.6,0.84,21.92,0.57c8.35-3.71,16.93-7.02,25.94-7.77c6.39,5.77,13.42,10.8,21.11,14.84
			c28.28,14.86,65.97,13.81,89.68-7.6c1.75-1.58,3.54-3.51,3.61-5.87c0.07-2.14-1.28-4.04-2.58-5.73
			C464.64,940.7,451.09,925.98,436.34,912.6z"/>
		<path class="st2" d="M831.63,899.37c-7.9,2.64-17.44,4.23-23.87-1.07c-7.12-5.87-6.53-16.82-4.82-25.89
			c0.6-3.17,1.91-7.18,3.37-11.48c13.01-19.71,21.63-41.64,22.43-65.19c-19.77,31.91-39.96,64.32-68.21,89.04
			c-18.44,16.14-39.86,28.55-61.89,39.28c-13.55,6.61-28.12,12.75-43.16,11.57c-2.87-0.23-5.8-0.75-8.27-2.24
			c-8.9-5.37-6.83-18.64-3.62-28.53c-1.91,6.69-13.36,15.79-17.94,21.19c-6.22,7.35-12.44,14.7-18.65,22.04
			c-2.81,3.32-15.1,13.62-12.46,19.02c2.13,4.37,17.19,0.59,21.45,0.22c14.67-1.25,29.39-2.51,43.79-5.54
			c26.16-5.51,50.73-16.79,73.24-31.36c-4.47,4.69-9.06,9.27-13.79,13.7c17,10.38,38.49,11.52,57.81,6.68
			c19.32-4.84,36.82-15.16,53.15-26.57c44.18-30.87,82.02-70.79,110.49-116.56C910.24,845.02,877.31,884.09,831.63,899.37z"/>
		<path class="st2" d="M845.5,766.81c-2.38,7.22-3.99,11.32-3.99,11.32S843.42,775.2,845.5,766.81z"/>
		<path class="st2" d="M312.31,700.75c-3.94,3.4-1.58,23.5-1.29,28.35c1.13,19.26,6.14,38.31,14.79,55.55
			c13.56,27.02,35.99,49.49,62.98,63.09c-37.08-29.02-55.53-76.58-60.84-123.38c-0.39-3.44-0.73-6.93-1.86-10.2
			C324.84,710.51,317.26,696.48,312.31,700.75z"/>
		<path class="st2" d="M772.18,715.91c-2.63,14.77-4.57,27.67-12.44,40.44c-8.67,14.06-19.13,26.58-31.43,37.6
			c-7.97,7.14-15.94,14.28-23.91,21.43c-7.12,6.38-14.36,12.84-22.96,17.03c-2.51,1.22-5.56,2.93-5.37,5.71
			c0.24,3.62,5.36,4.2,8.9,3.4c23.37-5.26,42.51-21.91,58.25-39.98c15.42-17.71,28.78-37.62,36.17-59.9
			c6.55-19.73,9.65-45.39,1.23-65.11c-2.79,3.31-1.08,13.92-1.4,18.38C778.72,701.81,773.39,709.11,772.18,715.91z"/>
		<path class="st4" d="M599.81,448.46c3.38-1.81,6.76-3.62,10.14-5.43c-5.65-13.51-20.4-20.39-30.83-30.67
			c-12.02-11.84-18.33-28.56-20.28-45.32c-1.95-16.76,0.12-33.72,2.84-50.37c0.09,12.84,2.63,25.66,7.42,37.58
			c-1.25-13.49,2.42-27.13,8.7-39.13c6.28-12,15.08-22.52,24.51-32.24c9.81-10.1,21.22-19.88,35.13-22.11
			c5.45-0.87,11.37-0.43,15.94,2.66c5.5,3.72,8.03,10.48,9.46,16.96c2.55,11.58,2.58,23.7,0.11,35.29
			c9.57-11.33,18.58-24.42,19.12-39.24c0.39-10.76-3.78-21.16-8.82-30.67c-4.25-8-9.64-16.06-17.9-19.77
			c-7.52-3.37-16.29-2.58-24.22-0.34c-18.81,5.31-34.7,18.08-47.8,32.58c-5.32,5.88-10.53,12.84-10.32,20.77
			c-0.53-5.21-1.06-10.42-1.59-15.64c-14.84,28.11-29.89,56.8-35.41,88.11c-2.89,16.38-3.1,33.14-1.83,49.72
			c0.9,11.75,2.21,24.75-4.82,34.21c-4.13,5.56-10.52,8.91-16.68,12.08c-3.75,1.92-7.7,3.87-11.73,5.21
			c0.84,1.42,1.66,2.85,2.48,4.29c0.07,0,0.14,0,0.2-0.01c5.48-0.42,10.56-2.83,15.72-4.72c19.73-7.23,42.14-6.91,61.65,0.89
			c1.97,0.79,4.01,1.66,6.12,1.44c0.41-0.04,0.81-0.13,1.21-0.25c1.1-0.32,2.15-0.87,3.16-1.42
			C594.26,451.43,597.04,449.95,599.81,448.46z"/>
		<path class="st5" d="M523.77,327.64c2.17-25.18,12.03-49.39,26.38-70.2c10.11-14.66,22.42-27.72,35.94-39.29
			c3.67-3.14,18.04-11.36,13.4-14.93c-5.38-4.15-18.36,1.09-23.19,3.97c-8.58,5.11-14.99,13.09-21.11,20.98
			c-16.83,21.7-33.36,45.07-37.88,72.15c-1.52,9.1-1.63,18.36-1.73,27.59c-0.35,31.33-0.71,62.66-1.06,93.99
			c5.32-20.19,8.22-41.02,8.6-61.9C523.31,349.21,522.85,338.39,523.77,327.64z"/>
		<path class="st6" d="M290.99,439.17c-21.17,2.71-49.81,16-76.62,34.73c-0.96,0.67-1.91,1.34-2.86,2.02
			c-30.6,21.92-58.36,50.77-69.26,78.8c-20.74,53.33-22.52,110.81-18.37,155.26c4.15,44.44,43.85,101.93,43.85,101.93l-0.59-2.96
			c0,0-6.52-23.11-13.63-37.93c-7.11-14.81-30.81-83.56-9.48-177.78c11.9-52.54,57.39-94.54,94.66-121.34
			c16.48-11.85,31.34-20.72,40.99-26.22C287.34,441.32,291.73,439.08,290.99,439.17z"/>
		<path class="st6" d="M297.51,783.47c-44.44-160.89,50.67-284.44,50.67-284.44C232.62,619.91,297.51,783.47,297.51,783.47z"/>
		<path class="st6" d="M866.4,483.02c0,0,75.56,69.33,70.22,197.33c-5.33,128-63.11,186.67-63.11,186.67s71.11-70.22,78.22-166.22
			C958.84,604.8,913.51,514.13,866.4,483.02z"/>
	</g>
</g>
<g id="Layer_2">
	<g>
		<path d="M929.64,532.56c-12.04-27.25-37.56-56.6-68.26-78.49c-35.26-25.15-73.18-37.47-106.8-34.69
			c-10.19,0.84-19.31,1.83-27.46,2.91c-39.21-27.3-118.8-10.66-122.21-9.93l0.19,0.88c-3.42-2.22-7.21-4.4-11.53-6.44
			c-21.84-10.31-16.22-39.48-5.88-79.56c6.98-27.06,34.66-47.55,51.16-52.87c6.41-2.07,9.27-1.3,9.83-0.84
			c4.27,3.56,8.7,12.89,8.88,23.84c0.09,5.3-0.88,15.19-8.42,21.92c-1.71,1.53-2.16,4.02-1.1,6.06c1.07,2.03,3.38,3.07,5.61,2.53
			c21.42-5.22,36.13-17.28,42.54-34.87c8.76-24.04,0.28-55-12.13-71.91c-14.13-19.25-32.24-19.16-49.77-19.09
			c-5.92,0.03-12.04,0.05-17.93-0.69c-7.71-0.98-11.76-3.1-15.01-4.8c-8.14-4.27-12.96-4.95-28.18,5.66
			c-23.72,16.54-50.23,60.54-63.13,93.54c-7.06,18.06-5.83,40.21-4.75,59.76c0.87,15.69,1.69,30.5-2.6,36.26
			c-3.43,4.6-13.95,10.96-26.91,17.49c-12.36-1-97.34-6.78-139.53,19.42c-0.81-0.11-1.63-0.22-2.44-0.34
			c-34.7-5.2-112.59,17.04-162.63,70.87c-26.92,28.97-41.62,72.92-49.2,104.69c-9.71,40.66-11.5,77-8.98,94.97
			c5.65,40.15,32.07,138.97,77.73,188.19c53.76,57.94,94.66,86.38,125.06,86.93c26.1,0.48,43.25-7.41,50.08-11.31
			c8.69,6.79,35.36,25.76,62.11,25.76c5.05,0,10.1-0.67,15.03-2.23c19.68-6.22,29.43-11.82,33.9-16.4
			c10.59,5.88,38.91,19.8,66.29,17.81c28.69-2.09,48.86-12.49,54.61-15.79c12,1.6,77.58,8.65,118.02-21.79
			c0.62,0.33,1.24,0.66,1.86,0.99c24.6,13.11,58.3,31.06,133.55-32.12c82.15-68.98,104.12-118.53,114.31-180.8
			C975.8,675.44,954.9,589.72,929.64,532.56z M710.87,424.76c-29.2,5.08-41.89,11.08-46.1,13.5c-2.32-0.08-6.94-0.21-12.9-0.17
			c-15.63-0.84-23.51-7.09-33.46-15c-1.01-0.8-2.04-1.62-3.1-2.45C634.12,417.57,680.6,411.94,710.87,424.76z M505.62,402.78
			c-2.26,9.2-5.66,18.09-10.6,26.15c7.94-4.6,14.23-11.97,17.53-20.53c3.21-8.33,3.53-17.12,3.05-26.07
			c0.76-7.83,0.24-17.23-0.32-27.4c-1.03-18.53-2.19-39.53,4.08-55.57c12.54-32.07,38.24-74.12,59.54-88.98
			c11.74-8.19,13.03-7.52,17.81-5.01c2.43,1.27,5.45,2.85,9.85,4.13c-9.17,2.55-17.76,7.16-24.79,13.58
			c11.28-7.24,25.31-7.95,38.33-11.37c4.83,0.33,9.59,0.31,14.24,0.29c16.41-0.07,30.55-0.13,41.67,15.01
			c9.32,12.7,18.83,40.51,10.8,62.57c-3.83,10.52-11.17,18.48-21.9,23.75c1.84-4.86,2.76-10.31,2.66-16.14
			c-0.22-12.71-5.23-25.31-12.48-31.35c-0.15-0.12-0.31-0.24-0.46-0.35c2.36,0.02,4.71,0.27,7.01,0.85
			c6.04,1.51,11.72,5.6,13.72,11.49c-1.65-7.64-5.65-15.58-12.95-18.36c-6.34-2.42-13.42-0.34-19.88,1.74
			c-9.08,2.93-18.82,6.41-25.39,12.93c-16.31,10.69-33.43,28.52-39.13,50.6c-2.08,8.05-4.21,16.35-5.93,24.53
			c-0.01-0.02-0.02-0.05-0.02-0.07c-4.58-14.89-5.05-31.02-1.34-46.14c-4.63,9.63-6.21,20.43-6.8,31.1
			c-0.82,14.85,0.18,29.8,2.97,44.4c0.68,3.55,1.42,7.58,2.75,11.29c2.19,11.26,7.98,20.48,19.68,26
			c9.71,4.58,16.41,9.91,22.89,15.07c3.82,3.04,7.57,6.02,11.71,8.62c-15.03,1.56-30.55,4.72-40.09,10.9
			c-56.61-11.42-87.85,2.4-97.22,7.71c-6.97-4.42-14.69-8.78-23.5-13.26c-6.28-3.19-13.4-6.71-20.93-9.6
			C460.28,427.89,491.7,414.18,505.62,402.78z M456.6,418.27c-10.2,4.55-20.55,8.8-29.36,12.19c-7.3-1.89-15.61-3-22.19,0.26
			c-0.2,0.1-0.41,0.21-0.61,0.31l-0.18,0.09c-0.32,0.16-0.45,0.22-0.48,0.23c-0.21,0.05-0.88,0.05-1.3,0.05l-4.94,0
			c-14.02,0.01-28.36,0.02-42.57-0.91C386,418.31,431.03,417.53,456.6,418.27z M955.69,736.44
			c-9.81,59.95-31.1,107.77-110.87,174.76c-66.03,55.44-95.61,44.91-118.32,33.12c70.13-39.52,115.88-117.89,122.72-221.29
			c-14.97,134.74-104.33,199.3-132.16,216.32l-2.39-1.22l-2.53,2.07c-34.35,28.06-94.11,23.76-110.39,21.97
			c6.04-6.09,17.3-19.56,32.1-46.54c-12.46,20.74-36,41.92-44.84,49.51c-7.94,3.94-24.64,10.88-46.51,12.47
			c-22.38,1.63-46.43-9.11-57.82-15.05c-13.51-14.04-48.13-52.25-56.19-83.07c9.08,51.29,31.72,73.03,41.81,80.4v2.23
			c-1.01,1.34-6.5,7.03-30.28,14.54c-30.7,9.69-70.11-23.58-70.5-23.92l-3-2.55l-0.85,0.61c-23.84-26.12-65.48-78.73-74.66-135.9
			c5.64,56.45,53.25,124.01,65.92,141.11c-7.51,3.51-21.45,8.32-40.94,7.97c-27.15-0.49-66.82-28.67-117.91-83.74
			c-44.04-47.47-69.66-143.64-75.16-182.78c-2.4-17.04-0.6-51.86,8.8-91.25c10.33-43.26,26.95-78.84,46.8-100.2
			c45.92-49.41,120.54-72.79,153.82-67.79c11.99,1.8,24.11,2.6,36.17,2.95c-56.7,48.64-113.02,150.9-101.2,245.44
			c3.69-155.01,97.28-225.66,128.92-245.17c0.45,0,0.9,0,1.35,0l4.91,0c1.1,0,2.61,0.01,4.23-0.48c0.83-0.25,1.52-0.58,2.14-0.9
			l0.65-0.33c5.66-2.8,16.53,0.69,23.03,2.79l0.44,0.14c9.1,2.92,17.99,7.31,25.62,11.19c9.15,4.65,17.04,9.15,24.11,13.72
			c-10.55,10.08-39.94,42.75-53.84,104.84c15.4-58.06,55.2-96.1,70.75-109.17c13.3-5.1,39.96-11.26,81.24-3.13
			c23.13,12.24,63.81,40.66,87.34,97.19c-15.7-51.58-63.87-88.17-78.8-98.51c12.85-8.33,42.13-10.47,62.1-10.66
			c0.05,0,0.1,0.01,0.15,0.01c0.08,0,0.17,0.01,0.25,0.01c0.07,0,0.14-0.02,0.21-0.02c5.52-0.04,10.31,0.07,13.77,0.24l1.76,0.13
			l1.45-1.1c0.04-0.03,0.9-0.62,2.9-1.58c40.49,8.01,138.47,38.89,165.99,152.22c-13.12-73.02-68.99-141.43-156.17-156.06
			c12.24-4.03,34.76-9.38,73.62-12.59c70.32-5.81,143.57,58.55,165.09,107.26C945.15,592.41,965.6,675.85,955.69,736.44z"/>
		<path d="M633.84,915.62c1.43-2.38,2.72-4.76,3.82-7.11C636.36,910.98,635.09,913.34,633.84,915.62z"/>
		<path d="M413.57,671.33c21.88,0,46.86-3.24,74.21-12.12l4.38-1.42l-3.07-3.43c-8.23-9.2-49.01-40.23-83.21-64.77
			c-20.03-14.37-37.79-26.57-51.34-35.25c-24.86-15.94-27.42-14.86-29.29-14.07l-1.53,0.64l-0.27,1.64
			c-4.57,27.97-15.11,93.46-14.19,97.58c0.17,0.76,0.68,3.08,10.89,8.91C328.56,653.84,362.7,671.33,413.57,671.33z M320.62,642.44
			l22.65-10.15c2.06,1.26,5.89,2.99,13.1,5.63c9.97,3.65,22.28,7.4,34.67,10.56c19.28,4.92,45.6,10.23,72.17,11.24
			C390.87,675.94,337.87,653.09,320.62,642.44z M479.82,653.75c-57.12,2.25-124.16-21-133.13-26.36c0.07-5.51,1.7-28.41,2.92-44.38
			l38.51,1.32c5.2,3.66,10.71,7.58,16.56,11.79C437.71,619.89,467.5,642.8,479.82,653.75z M379.08,578.02l-30.5-1.05l-17.55-29.53
			C338.4,551,354.45,560.96,379.08,578.02z M327.72,553.6l16.06,27.02c-0.8,10.38-2.87,37.7-3.05,46.23l-25.58,11.46
			C315.47,631.16,322.38,586.68,327.72,553.6z"/>
		<path d="M666.44,673.5c23.29,0,41.19-3.06,54.15-6.64c27.6-7.62,39.42-18.99,39.91-19.47l0.34-0.33l1.94-3.7l2.25-3.59
			l-7.72-89.46l-0.57-0.71c-0.22-0.28-2.31-2.79-6.33-4.81c-2.04-1.02-2.81-1.39-29.88,17.09c-13.62,9.3-32.34,22.39-55.64,38.92
			c-34.36,24.36-68.76,49.16-77.62,55.55c0,0-0.01,0-0.01,0l0,0c-1.36,0.98-2.12,1.53-2.18,1.57l-5.31,3.84l6.38,1.51
			C617.92,670.8,644.56,673.5,666.44,673.5z M596.38,659.43c4.03-1.2,10.7-3.04,21.67-5.78c47.52,8.54,109.33-11.93,118.5-15.11
			c7.5,2.93,14.38,4.62,18.67,5.5C747.96,650.01,702.62,682.29,596.38,659.43z M751.5,552.77l7.38,85.51l-0.19,0.3
			c-3.38-0.61-10.89-2.17-19.2-5.34c-1.32-11.67-11.95-53.65-15.27-66.63c12.51-8.55,21.42-14.38,24.52-15.9
			C750.04,551.47,750.96,552.25,751.5,552.77z M718.95,570.22c5.68,22.26,13.42,54.21,14.54,63.01
			c-11.66,3.9-69.24,22.01-112.98,14.75v-8.16C655.17,614.95,693.15,587.98,718.95,570.22z M614.51,644.12V648h1.38
			c-3.17,0.79-6.87,1.74-10.55,2.71C608.36,648.54,611.42,646.34,614.51,644.12z"/>
		<path d="M779.81,671.26c-1.25,5.24-5.3,10.07-7.41,14.92l-57.17,27.74c-2.31-5.5-5.37-10.77-7.87-16.21
			c0.49,5.67,2.14,11.16,3.77,16.61c1.93,6.43,3.49,13.25,5.79,19.6c0.08,1.51-0.02,2.62-0.34,3.14
			c-5.01,3.34-46.95,19.16-52.65,17.39c-3.78-1.52-6.88-9.07-7.96-13.48l-1.68-5.88l-56.48,10.93c-1.14-2.87-2.6-5.63-3.8-8.48
			c-2.66-6.39-3.93-13.35-3.7-20.26c-1.97,7.08-3.96,14.46-2.61,21.68c0.78,4.21,2.67,8.13,4.01,12.2c2.29,6.93,3,14.38,2.07,21.62
			l-0.01,0.6c-7.26,2.21-44.64,7.03-53.36,5.76l-0.69-0.1l0.12-0.21c-3.18-1.74-3.69-5.99-3.97-9.6c-0.9-11.6-3.27-23.08-7.03-34.09
			c1.89,9.57,2.78,19.34,2.7,29.1l-0.78-5.56l-2.59-0.02c-0.55,0-54.68-0.51-68.63-6.43l-4.17-1.77v23.13l-15.79-0.92
			c-19.03-2.96-40.77-7.55-46.61-10.47c1.51-14.19,1.21-28.58-0.95-42.69c-1.02,7.41-1.61,14.87-2.02,22.35l-40.19-21.54
			c0-0.04,0-0.06,0-0.07l-0.12,0l-26.49-14.19c-3.51-3.3-7.02-6.59-10.53-9.89c4.82,6.94,8.38,14.56,11.21,22.51
			c2.76,20.8,13.76,78.95,52.42,103.72c44.34,28.41,76.39,42.03,81.15,41.33c2.12-0.3,5.29-0.75,7.26-27.01
			c20.48,0.52,50.51,1.42,56.49,1.99c1.49,3.33,4.06,15.85,5.75,26.52l0.47,2.94l2.94-0.45c24.84-3.75,82.89-12.59,85.31-13.49
			c1.77-0.66,4.41-1.64,2.21-20.87c15.55-6.1,39.43-15.07,43.49-15.56c0.66-0.07,1.43,0.14,2.24,0.53c0.41,0.24,0.81,0.47,1.19,0.69
			c2.5,1.67,5.23,4.72,6.9,7.17l4.74,11.25l2.92-1.62c2.06-1.14,50.65-28.26,72.57-60.03c21.94-31.79,29.16-86.56,29.46-88.88
			l0.71-5.5l-1.81,0.88C780.38,678.64,780.23,674.94,779.81,671.26z M329.7,716.36l14.41,7.72c0.71,6.94,3.34,22.92,12.95,41.32
			c11.11,21.27,34.01,49.65,80.3,66.69l-0.74,1.85l12.67,21.33c-11.76-4.71-36.12-16.37-69.71-37.89
			C342.51,793.64,332.09,734.75,329.7,716.36z M456.31,855.36l-12.58-21.19l1.83-5.55c-0.1-0.03-0.2-0.07-0.3-0.1l3.07-7.64
			l10.55,13.74C458.33,842.27,457.32,850.75,456.31,855.36z M463.46,830.72l-9.48-12.35l49.53,3.78l10.22,10.17
			C500.97,831.71,478.9,831.11,463.46,830.72z M523.75,833.1c-0.17-0.05-0.47-0.11-0.9-0.16l-16.67-16.6l-60.63-4.62l-5.95,14.81
			c-44.47-16.32-66.43-43.38-77.08-63.63c-7.61-14.48-10.66-27.57-11.88-35.31l35.46,19c-0.01,3.66-0.03,11.94,0.01,16.01
			c0.01,1.62,0.53,3.15,4.15,4.93c0.64,1.55,1.65,2.82,3.25,3.47l-0.25-2.21c4.07,1.5,10.42,3.21,20.35,5.28
			c12.47,2.6,25.09,4.56,25.22,4.58l22.57,1.33v-20.81c16.6,4.45,53.89,5.33,64.16,5.49l2.62,18.79l11.38,1.66
			c7.93,1.15,41.8-2.53,54.12-5.51l-0.03,1.73c0.32-0.65,0.64-1.3,0.94-1.97c1.38-0.36,2.43-0.71,3.03-1.04
			c3.1-1.71,4.2-6.77,3.66-16.93c-0.2-3.75-0.58-7.35-0.87-9.74l49.64-9.61l0.12,0.41c0.43,1.75,3.79,14.46,11.54,17.57
			c8.47,3.39,54.05-15.05,58.42-18.1c4.94-3.46,2.31-15.33-0.28-23.57l37.43-18.16c-2.53,8.3-8,23.92-17.61,41.3
			c-12.83,23.18-35.88,54.29-73.06,71.65c-0.08-0.04-0.15-0.08-0.23-0.12c-4.18-2.39-14.87-8.37-19.06-9.37
			c-4.85-1.15-38.66,6.92-52.97,10.45l-1.81,0.45l-0.4,1.82c-0.44,1.98,0.53,11.49,1.29,18.09c-8.18,3.61-50.59,9.06-64.16,10.5
			C526.67,834.03,524.93,833.47,523.75,833.1z M611.67,831.59l0.03,0.25c0.62,4.92,1.05,10.6,1.05,14.28l-13.12-10.36l-0.02-0.16
			c-0.74-6.28-1.14-10.45-1.35-13.19L611.67,831.59z M530.54,850.84c5.78-0.65,18.03-2.1,30.38-3.88c21.54-3.1,30.51-5.3,34.51-6.86
			l12.19,9.62c-14.13,2.35-49.2,7.74-75.17,11.67C531.77,857.3,531.13,853.82,530.54,850.84z M616.4,827.56l-13.63-9.33
			c20.08-4.81,40.29-9.09,43.15-8.74c1.58,0.38,5.03,2.02,8.78,3.98C644.06,816.83,624.16,824.53,616.4,827.56z M747.04,772.43
			c-18.13,26.27-56.77,50.13-67.64,56.52l-2.35-5.58l-0.16-0.24c-0.61-0.92-2.41-3.48-4.9-5.94c37.02-18.29,60.06-49.54,73-72.96
			c12.62-22.84,18.15-42.26,19.53-47.56l7.18-3.49c0.47,1.3,1.21,2.57,2.01,3.83C770.48,714.72,762.45,750.1,747.04,772.43z"/>
	</g>
</g>
</svg>
